<?xml version="1.0" encoding="UTF-8"?>
<svg xmlns="http://www.w3.org/2000/svg" xmlns:xlink="http://www.w3.org/1999/xlink" width="164px" height="24px" viewBox="0 0 161 24" version="1.1">
<g id="surface1">
<path style=" stroke:none;fill-rule:nonzero;fill:rgb(35.294118%,16.078431%,89.411765%);fill-opacity:1;" d="M 79.90625 3.136719 L 73.964844 7.988281 L 77.84375 7.988281 L 77.84375 23.753906 L 79.90625 22.089844 Z M 81.621094 20.683594 L 87.667969 15.710938 L 83.675781 15.710938 L 83.675781 0.304688 L 81.621094 1.738281 Z M 156.476562 5.96875 C 157.164062 6.328125 157.65625 6.628906 157.957031 6.875 L 160.09375 2.796875 C 159.027344 2.140625 157.738281 1.550781 156.230469 1.027344 C 154.75 0.507812 153.148438 0.246094 151.421875 0.246094 C 149.777344 0.246094 148.253906 0.519531 146.859375 1.070312 C 145.488281 1.617188 144.390625 2.429688 143.570312 3.5 C 142.773438 4.570312 142.375 5.902344 142.375 7.492188 C 142.375 9.277344 142.9375 10.652344 144.0625 11.613281 C 145.214844 12.546875 146.96875 13.316406 149.324219 13.917969 C 151.214844 14.414062 152.738281 14.867188 153.886719 15.277344 C 155.066406 15.664062 155.65625 16.308594 155.65625 17.214844 C 155.65625 18.558594 154.394531 19.230469 151.875 19.230469 C 150.613281 19.230469 149.421875 19.082031 148.296875 18.777344 C 147.171875 18.476562 146.1875 18.105469 145.335938 17.667969 C 144.515625 17.226562 143.925781 16.828125 143.570312 16.472656 L 141.347656 20.796875 C 142.773438 21.703125 144.40625 22.417969 146.242188 22.9375 C 148.078125 23.460938 149.925781 23.722656 151.789062 23.722656 C 153.40625 23.722656 154.914062 23.5 156.3125 23.0625 C 157.710938 22.59375 158.835938 21.855469 159.683594 20.839844 C 160.5625 19.792969 161 18.421875 161 16.71875 C 161 15.320312 160.671875 14.195312 160.011719 13.34375 C 159.382812 12.464844 158.464844 11.761719 157.257812 11.242188 C 156.082031 10.71875 154.683594 10.253906 153.066406 9.839844 C 151.230469 9.402344 149.832031 9.003906 148.871094 8.648438 C 147.941406 8.289062 147.472656 7.6875 147.472656 6.835938 C 147.472656 5.378906 148.761719 4.652344 151.339844 4.652344 C 152.296875 4.652344 153.230469 4.789062 154.132812 5.0625 C 155.039062 5.3125 155.820312 5.613281 156.476562 5.96875 Z M 156.476562 5.96875 "/>
<path style=" stroke:none;fill-rule:evenodd;fill:rgb(35.294118%,16.078431%,89.411765%);fill-opacity:1;" d="M 113.214844 23.597656 C 111.40625 23.597656 109.761719 23.28125 108.28125 22.652344 C 106.800781 21.992188 105.523438 21.113281 104.457031 20.015625 C 103.40625 18.917969 102.570312 17.632812 101.988281 16.226562 C 101.417969 14.855469 101.125 13.386719 101.125 11.902344 C 101.125 10.390625 101.425781 8.933594 102.03125 7.535156 C 102.628906 6.144531 103.496094 4.882812 104.578125 3.828125 C 105.6875 2.722656 107 1.839844 108.445312 1.234375 C 109.921875 0.601562 111.539062 0.285156 113.292969 0.285156 C 115.105469 0.285156 116.75 0.628906 118.230469 1.316406 C 119.710938 1.976562 120.96875 2.867188 122.011719 3.992188 C 123.066406 5.070312 123.902344 6.34375 124.476562 7.742188 C 125.042969 9.097656 125.339844 10.554688 125.339844 12.023438 C 125.339844 13.535156 125.039062 14.988281 124.4375 16.390625 C 123.824219 17.773438 122.960938 19.03125 121.886719 20.097656 C 120.816406 21.167969 119.542969 22.019531 118.066406 22.652344 C 116.585938 23.28125 114.96875 23.597656 113.214844 23.597656 Z M 106.140625 11.941406 C 106.140625 13.175781 106.429688 14.359375 107.003906 15.484375 C 107.570312 16.570312 108.40625 17.492188 109.429688 18.160156 C 110.5 18.847656 111.773438 19.191406 113.253906 19.191406 C 114.761719 19.191406 116.035156 18.832031 117.078125 18.121094 C 118.121094 17.378906 118.914062 16.457031 119.460938 15.359375 C 120.011719 14.234375 120.285156 13.082031 120.285156 11.902344 C 120.285156 10.664062 119.996094 9.5 119.421875 8.398438 C 118.855469 7.3125 118 6.398438 116.953125 5.765625 C 115.914062 5.078125 114.667969 4.734375 113.214844 4.734375 C 111.707031 4.734375 110.417969 5.089844 109.347656 5.804688 C 108.332031 6.488281 107.511719 7.425781 106.964844 8.523438 C 106.425781 9.582031 106.144531 10.753906 106.140625 11.941406 Z M 0 23.433594 L 10.03125 0.410156 L 14.101562 0.410156 L 24.089844 23.433594 L 18.828125 23.433594 L 16.527344 18.039062 L 7.605469 18.039062 L 5.304688 23.433594 Z M 12.085938 6.464844 L 8.714844 13.714844 L 15.335938 13.714844 Z M 12.085938 6.464844 "/>
<path style=" stroke:none;fill-rule:nonzero;fill:rgb(35.294118%,16.078431%,89.411765%);fill-opacity:1;" d="M 43.527344 0.410156 L 49.859375 8.566406 L 56.191406 0.410156 L 61.574219 0.410156 L 52.492188 12.066406 L 61.289062 23.433594 L 55.902344 23.433594 L 49.859375 15.609375 L 43.859375 23.433594 L 38.390625 23.433594 L 47.230469 12.066406 L 38.101562 0.410156 Z M 43.527344 0.410156 "/>
</g>
</svg>
