<svg xmlns="http://www.w3.org/2000/svg" xmlns:xlink="http://www.w3.org/1999/xlink" width="65px" height="65px" viewBox="0 0 65 65" version="1.1">
<g id="surface1">
<path style=" stroke:none;fill-rule:nonzero;fill:#ff8434;fill-opacity:1;" d="M 37.476562 0 L 61.941406 0 C 63.625 0 64.992188 1.363281 64.992188 3.046875 L 64.992188 27.460938 C 64.992188 29.144531 63.625 30.507812 61.941406 30.507812 L 37.476562 30.507812 C 35.792969 30.507812 34.425781 29.144531 34.425781 27.460938 L 34.425781 3.046875 C 34.425781 1.363281 35.792969 0 37.476562 0 Z M 37.476562 0 "/>
<path style=" stroke:none;fill-rule:nonzero;fill:#ff8434;fill-opacity:1;" d="M 27.371094 32.339844 L 27.371094 8.695312 C 27.371094 7.714844 26.980469 6.769531 26.285156 6.074219 C 24.832031 4.628906 22.484375 4.628906 21.03125 6.074219 L 2.066406 25.007812 C -0.679688 27.75 -0.679688 32.191406 2.066406 34.929688 L 30.140625 62.945312 C 32.886719 65.683594 37.335938 65.683594 40.078125 62.945312 L 59.046875 44.015625 C 60.496094 42.570312 60.496094 40.222656 59.046875 38.773438 L 58.902344 38.632812 C 58.207031 37.9375 57.261719 37.546875 56.277344 37.546875 L 32.589844 37.546875 C 31.207031 37.546875 29.878906 37 28.898438 36.023438 C 27.917969 35.046875 27.371094 33.71875 27.371094 32.339844 Z M 27.371094 32.339844 "/>
</g>
</svg>