<?xml version="1.0" encoding="UTF-8"?>
<svg xmlns="http://www.w3.org/2000/svg" xmlns:xlink="http://www.w3.org/1999/xlink" width="164px" height="46px" viewBox="0 0 163 46" version="1.1">
<defs>
<filter id="alpha" filterUnits="objectBoundingBox" x="0%" y="0%" width="100%" height="100%">
  <feColorMatrix type="matrix" in="SourceGraphic" values="0 0 0 0 1 0 0 0 0 1 0 0 0 0 1 0 0 0 1 0"/>
</filter>
<mask id="mask0">
  <g filter="url(#alpha)">
<rect x="0" y="0" width="163" height="46" style="fill:rgb(0%,0%,0%);fill-opacity:0.541176;stroke:none;"/>
  </g>
</mask>
<clipPath id="clip1">
  <rect x="0" y="0" width="163" height="46"/>
</clipPath>
<g id="surface5" clip-path="url(#clip1)">
<path style=" stroke:none;fill-rule:nonzero;fill:rgb(0%,0%,0%);fill-opacity:1;" d="M 48.925781 35.027344 L 45.875 35.027344 L 45.875 11.417969 L 59.722656 11.417969 L 59.722656 14.320312 L 48.925781 14.320312 L 48.925781 22.070312 L 58.664062 22.070312 L 58.664062 24.90625 L 48.925781 24.90625 Z M 65.457031 14.816406 C 64.730469 15.542969 63.589844 15.65625 62.730469 15.089844 C 61.875 14.519531 61.539062 13.429688 61.933594 12.480469 C 62.324219 11.53125 63.335938 10.992188 64.347656 11.191406 C 65.355469 11.390625 66.085938 12.273438 66.085938 13.300781 C 66.097656 13.871094 65.867188 14.417969 65.453125 14.816406 Z M 65.457031 35.027344 L 62.410156 35.027344 L 62.410156 18.871094 L 65.457031 18.871094 Z M 72.148438 35.027344 L 69.097656 35.027344 L 69.097656 18.871094 L 72.015625 18.871094 L 72.015625 21.507812 L 72.144531 21.507812 C 72.496094 20.578125 73.175781 19.808594 74.050781 19.332031 C 74.886719 18.796875 75.855469 18.5 76.851562 18.472656 C 77.632812 18.453125 78.410156 18.585938 79.136719 18.871094 L 77.976562 21.703125 C 77.453125 21.53125 76.90625 21.453125 76.355469 21.472656 C 75.238281 21.480469 74.171875 21.953125 73.421875 22.777344 C 72.570312 23.644531 72.144531 24.785156 72.144531 26.191406 Z M 87.492188 35.542969 C 85.039062 35.542969 83.046875 34.730469 81.511719 33.105469 C 79.980469 31.480469 79.210938 29.425781 79.210938 26.949219 C 79.164062 24.71875 79.960938 22.554688 81.445312 20.882812 C 82.867188 19.21875 84.96875 18.285156 87.160156 18.34375 C 89.566406 18.34375 91.496094 19.125 92.941406 20.683594 C 94.390625 22.246094 95.113281 24.335938 95.113281 26.949219 L 95.078125 27.511719 L 82.253906 27.511719 C 82.339844 29.136719 82.886719 30.425781 83.894531 31.375 C 84.835938 32.292969 86.105469 32.804688 87.421875 32.792969 C 89.609375 32.792969 91.085938 31.871094 91.859375 30.023438 L 94.578125 31.144531 C 94.027344 32.421875 93.121094 33.515625 91.960938 34.292969 C 90.746094 35.125 89.253906 35.542969 87.492188 35.542969 Z M 91.867188 24.980469 C 91.800781 24.058594 91.375 23.179688 90.589844 22.34375 C 89.804688 21.507812 88.636719 21.101562 87.089844 21.117188 C 86.011719 21.097656 84.96875 21.476562 84.15625 22.171875 C 83.304688 22.917969 82.707031 23.910156 82.449219 25.007812 Z M 106.128906 35.542969 C 104.976562 35.566406 103.832031 35.300781 102.808594 34.769531 C 101.910156 34.320312 101.152344 33.636719 100.609375 32.792969 L 100.476562 32.792969 L 100.476562 35.027344 L 97.558594 35.027344 L 97.558594 11.417969 L 100.609375 11.417969 L 100.609375 18.871094 L 100.476562 21.113281 L 100.609375 21.113281 C 101.152344 20.269531 101.910156 19.585938 102.808594 19.132812 C 103.832031 18.597656 104.972656 18.324219 106.128906 18.34375 C 108.226562 18.34375 110.039062 19.167969 111.5625 20.816406 C 113.089844 22.464844 113.851562 24.507812 113.847656 26.949219 C 113.847656 29.390625 113.085938 31.433594 111.5625 33.082031 C 110.039062 34.734375 108.226562 35.554688 106.128906 35.542969 Z M 105.632812 32.773438 C 107.019531 32.785156 108.347656 32.203125 109.277344 31.175781 C 110.292969 30.109375 110.800781 28.695312 110.800781 26.9375 C 110.800781 25.179688 110.292969 23.765625 109.277344 22.699219 C 108.335938 21.683594 107.015625 21.105469 105.628906 21.101562 C 104.238281 21.097656 102.914062 21.671875 101.972656 22.683594 C 100.96875 23.738281 100.464844 25.15625 100.464844 26.9375 C 100.464844 28.71875 100.972656 30.140625 101.988281 31.203125 C 102.921875 32.226562 104.25 32.804688 105.640625 32.789062 Z M 121.613281 35.542969 C 119.886719 35.542969 118.445312 35.050781 117.289062 34.058594 C 116.132812 33.070312 115.554688 31.761719 115.550781 30.136719 C 115.550781 28.378906 116.234375 27 117.605469 26 C 118.976562 25 120.664062 24.5 122.671875 24.5 C 124.460938 24.5 125.929688 24.828125 127.074219 25.488281 L 127.074219 25.027344 C 127.117188 23.941406 126.667969 22.894531 125.847656 22.175781 C 125.011719 21.460938 123.9375 21.082031 122.835938 21.117188 C 121.992188 21.105469 121.164062 21.324219 120.433594 21.742188 C 119.75 22.121094 119.226562 22.730469 118.960938 23.460938 L 116.175781 22.273438 C 116.554688 21.300781 117.292969 20.402344 118.402344 19.570312 C 119.507812 18.742188 120.964844 18.332031 122.773438 18.335938 C 124.847656 18.335938 126.570312 18.9375 127.953125 20.136719 C 129.332031 21.339844 130.015625 23.042969 130.007812 25.25 L 130.007812 35.027344 L 127.082031 35.027344 L 127.082031 32.789062 L 126.949219 32.789062 C 125.734375 34.625 123.957031 35.539062 121.617188 35.539062 Z M 122.109375 32.773438 C 123.390625 32.769531 124.621094 32.273438 125.542969 31.386719 C 126.523438 30.5625 127.089844 29.351562 127.09375 28.074219 C 126.230469 27.367188 124.9375 27.015625 123.210938 27.015625 C 121.730469 27.015625 120.617188 27.335938 119.863281 27.972656 C 119.164062 28.507812 118.75 29.335938 118.738281 30.214844 C 118.726562 30.980469 119.117188 31.695312 119.773438 32.09375 C 120.464844 32.554688 121.277344 32.796875 122.109375 32.789062 Z M 138.972656 35.542969 C 137.160156 35.542969 135.664062 35.105469 134.484375 34.226562 C 133.335938 33.382812 132.441406 32.242188 131.894531 30.925781 L 134.613281 29.808594 C 135.476562 31.832031 136.941406 32.839844 139.015625 32.839844 C 139.835938 32.875 140.648438 32.65625 141.34375 32.214844 C 141.914062 31.863281 142.261719 31.238281 142.253906 30.566406 C 142.253906 29.511719 141.515625 28.796875 140.03125 28.421875 L 136.75 27.632812 C 135.671875 27.347656 134.667969 26.835938 133.800781 26.132812 C 132.882812 25.417969 132.363281 24.308594 132.410156 23.148438 C 132.410156 21.722656 133.042969 20.5625 134.316406 19.671875 C 135.644531 18.765625 137.226562 18.296875 138.835938 18.335938 C 140.183594 18.316406 141.507812 18.652344 142.679688 19.3125 C 143.78125 19.9375 144.636719 20.921875 145.09375 22.101562 L 142.449219 23.179688 C 141.851562 21.75 140.613281 21.035156 138.734375 21.035156 C 137.9375 21.007812 137.144531 21.203125 136.449219 21.597656 C 135.878906 21.890625 135.523438 22.476562 135.523438 23.113281 C 135.523438 24.039062 136.242188 24.664062 137.675781 24.996094 L 140.890625 25.753906 C 142.414062 26.097656 143.539062 26.699219 144.269531 27.558594 C 144.976562 28.359375 145.363281 29.390625 145.363281 30.457031 C 145.375 31.882812 144.710938 33.226562 143.574219 34.085938 C 142.382812 35.058594 140.847656 35.542969 138.96875 35.542969 Z M 155.371094 35.542969 C 152.921875 35.542969 150.925781 34.730469 149.394531 33.105469 C 147.859375 31.480469 147.089844 29.421875 147.089844 26.9375 C 147.042969 24.707031 147.84375 22.542969 149.324219 20.871094 C 150.75 19.210938 152.855469 18.28125 155.046875 18.34375 C 157.464844 18.34375 159.390625 19.125 160.832031 20.683594 C 162.269531 22.246094 162.992188 24.335938 163 26.949219 L 162.964844 27.511719 L 150.128906 27.511719 C 150.21875 29.136719 150.765625 30.425781 151.769531 31.375 C 152.714844 32.296875 153.988281 32.804688 155.308594 32.789062 C 157.492188 32.789062 158.972656 31.863281 159.746094 30.019531 L 162.464844 31.140625 C 161.914062 32.417969 161.003906 33.507812 159.847656 34.285156 C 158.628906 35.125 157.140625 35.542969 155.371094 35.542969 Z M 159.746094 24.980469 C 159.679688 24.058594 159.253906 23.179688 158.46875 22.34375 C 157.683594 21.507812 156.519531 21.101562 154.972656 21.117188 C 153.898438 21.097656 152.855469 21.476562 152.039062 22.171875 C 151.1875 22.917969 150.589844 23.910156 150.335938 25.007812 Z M 159.746094 24.980469 "/>
</g>
<mask id="mask1">
  <g filter="url(#alpha)">
<rect x="0" y="0" width="163" height="46" style="fill:rgb(0%,0%,0%);fill-opacity:0.2;stroke:none;"/>
  </g>
</mask>
<clipPath id="clip2">
  <rect x="0" y="0" width="163" height="46"/>
</clipPath>
<g id="surface8" clip-path="url(#clip2)">
<path style=" stroke:none;fill-rule:nonzero;fill:rgb(64.705882%,15.294118%,7.843137%);fill-opacity:1;" d="M 18.304688 45.015625 C 17.363281 45.542969 16.21875 45.542969 15.277344 45.015625 L 0.324219 36.609375 L 0.289062 36.839844 L 15.277344 45.265625 C 16.21875 45.792969 17.363281 45.792969 18.304688 45.265625 L 33.421875 36.839844 L 33.382812 36.601562 Z M 18.304688 45.015625 "/>
</g>
<linearGradient id="linear0" gradientUnits="userSpaceOnUse" x1="-0.0349" y1="0.1702" x2="1.0083" y2="0.929" gradientTransform="matrix(33.015625,0,0,45.242188,0.347656,0.015625)">
<stop offset="0" style="stop-color:rgb(100%,100%,100%);stop-opacity:0.101961;"/>
<stop offset="0.14" style="stop-color:rgb(100%,100%,100%);stop-opacity:0.0784314;"/>
<stop offset="0.61" style="stop-color:rgb(100%,100%,100%);stop-opacity:0.0196078;"/>
<stop offset="1" style="stop-color:rgb(100%,100%,100%);stop-opacity:0;"/>
</linearGradient>
</defs>
<g id="surface1">
<use xlink:href="#surface5" mask="url(#mask0)"/>
<path style=" stroke:none;fill-rule:nonzero;fill:rgb(100%,62.745098%,0%);fill-opacity:1;" d="M 0.289062 36.839844 L 5.894531 0.867188 C 5.964844 0.425781 6.308594 0.078125 6.746094 0.00390625 C 7.183594 -0.0703125 7.621094 0.144531 7.832031 0.539062 L 13.628906 11.382812 L 15.941406 6.96875 C 16.121094 6.628906 16.472656 6.414062 16.859375 6.414062 C 17.242188 6.414062 17.59375 6.628906 17.773438 6.96875 L 33.421875 36.839844 Z M 0.289062 36.839844 "/>
<path style=" stroke:none;fill-rule:nonzero;fill:rgb(96.078431%,48.627451%,0%);fill-opacity:1;" d="M 19.660156 22.828125 L 13.628906 11.378906 L 0.289062 36.839844 Z M 19.660156 22.828125 "/>
<path style=" stroke:none;fill-rule:nonzero;fill:rgb(100%,79.215686%,15.686275%);fill-opacity:1;" d="M 33.421875 36.839844 L 29.128906 10.195312 C 29.0625 9.8125 28.789062 9.5 28.421875 9.378906 C 28.054688 9.261719 27.648438 9.359375 27.375 9.636719 L 0.289062 36.839844 L 15.277344 45.269531 C 16.21875 45.796875 17.363281 45.796875 18.304688 45.269531 Z M 33.421875 36.839844 "/>
<path style=" stroke:none;fill-rule:nonzero;fill:rgb(100%,100%,100%);fill-opacity:0.2;" d="M 29.128906 10.195312 C 29.0625 9.8125 28.789062 9.5 28.421875 9.378906 C 28.054688 9.261719 27.648438 9.359375 27.375 9.636719 L 22 15.039062 L 17.773438 6.96875 C 17.59375 6.628906 17.242188 6.414062 16.855469 6.414062 C 16.472656 6.414062 16.117188 6.628906 15.941406 6.96875 L 13.628906 11.382812 L 7.828125 0.539062 C 7.621094 0.144531 7.179688 -0.0703125 6.742188 0.00390625 C 6.300781 0.0820312 5.960938 0.429688 5.894531 0.871094 L 0.289062 36.839844 L 0.273438 36.839844 L 0.289062 36.863281 L 0.4375 36.933594 L 27.367188 9.898438 C 27.640625 9.625 28.046875 9.523438 28.417969 9.644531 C 28.785156 9.761719 29.058594 10.078125 29.121094 10.460938 L 33.382812 36.867188 L 33.421875 36.839844 Z M 0.339844 36.792969 L 5.894531 1.125 C 5.964844 0.683594 6.304688 0.335938 6.746094 0.257812 C 7.183594 0.183594 7.621094 0.398438 7.832031 0.792969 L 13.628906 11.636719 L 15.941406 7.222656 C 16.121094 6.882812 16.472656 6.667969 16.859375 6.667969 C 17.242188 6.667969 17.59375 6.882812 17.773438 7.222656 L 21.917969 15.121094 Z M 0.339844 36.792969 "/>
<use xlink:href="#surface8" mask="url(#mask1)"/>
<path style=" stroke:none;fill-rule:nonzero;fill:url(#linear0);" d="M 29.085938 10.203125 C 29.019531 9.820312 28.75 9.503906 28.382812 9.386719 C 28.015625 9.269531 27.613281 9.367188 27.339844 9.640625 L 21.980469 15.042969 L 17.769531 6.976562 C 17.589844 6.636719 17.238281 6.421875 16.855469 6.421875 C 16.472656 6.421875 16.121094 6.636719 15.941406 6.976562 L 13.640625 11.386719 L 7.863281 0.546875 C 7.652344 0.15625 7.214844 -0.0585938 6.777344 0.015625 C 6.339844 0.0898438 6 0.4375 5.933594 0.878906 L 0.347656 36.835938 L 15.28125 45.257812 C 16.21875 45.78125 17.363281 45.78125 18.300781 45.257812 L 33.363281 36.835938 Z M 29.085938 10.203125 "/>
</g>
</svg>
