<svg
    width="72"
    height="65"
    viewBox="0 0 72 65"
    fill="none"
    xmlns="http://www.w3.org/2000/svg"
>
    <rect width="72" height="65" rx="32.5" fill="#816EE0" />
    <path
    d="M49 35C49.5523 35 50 34.5523 50 34C50 33.4477 49.5523 33 49 33V35ZM22.2929 33.2929C21.9024 33.6834 21.9024 34.3166 22.2929 34.7071L28.6569 41.0711C29.0474 41.4616 29.6805 41.4616 30.0711 41.0711C30.4616 40.6805 30.4616 40.0474 30.0711 39.6569L24.4142 34L30.0711 28.3431C30.4616 27.9526 30.4616 27.3195 30.0711 26.9289C29.6805 26.5384 29.0474 26.5384 28.6569 26.9289L22.2929 33.2929ZM49 33H23V35H49V33Z"
    fill="#F1F1F1"
    />
</svg>