 <svg
    width="72"
    height="65"
    viewBox="0 0 72 65"
    fill="none"
    xmlns="http://www.w3.org/2000/svg"
    >
    <rect width="72" height="65" rx="32.5" fill="#F1F1F1" />
    <path
        d="M26 31C25.4477 31 25 31.4477 25 32C25 32.5523 25.4477 33 26 33V31ZM46.2071 32.7071C46.5976 32.3166 46.5976 31.6834 46.2071 31.2929L39.8431 24.9289C39.4526 24.5384 38.8195 24.5384 38.4289 24.9289C38.0384 25.3195 38.0384 25.9526 38.4289 26.3431L44.0858 32L38.4289 37.6569C38.0384 38.0474 38.0384 38.6805 38.4289 39.0711C38.8195 39.4616 39.4526 39.4616 39.8431 39.0711L46.2071 32.7071ZM26 33H45.5V31H26V33Z"
        fill="#816EE0"
    />
</svg>