<svg width="1269" height="628" viewBox="0 0 1269 628" fill="none" xmlns="http://www.w3.org/2000/svg">
<g filter="url(#filter0_ddiiii_69_8810)">
<path fill-rule="evenodd" clip-rule="evenodd" d="M1269 159.286V3H584.051C541.624 3 507.094 36.8123 505.938 78.9602H505.908L505.908 79.8335C500.582 138.558 483.441 155.728 429.07 159.286L346.13 159.286C304.091 159.286 269.849 192.669 268.467 234.373H268.424L268.424 235.246C263.097 293.971 245.956 311.141 191.586 314.698H81.1429C37.9858 314.698 3 349.684 3 392.841C3 435.998 37.9859 470.984 81.143 470.984L842.931 470.984C788.967 467.453 771.678 450.512 766.215 392.841C771.678 335.172 788.966 318.231 842.926 314.699H953.811C995.85 314.699 1030.09 281.315 1031.47 239.612H1031.52V238.739C1036.84 180.014 1053.98 162.844 1108.36 159.286L429.07 159.286L1269 159.286ZM191.586 314.698L345.848 314.698L345.895 314.698H191.586Z" fill="#5BD5AB"/>
<path d="M268.424 551.31L268.424 550.437C263.097 491.712 245.956 474.542 191.586 470.985L953.811 470.984C996.727 470.984 1031.52 505.775 1031.52 548.691C1031.52 591.607 996.727 626.397 953.811 626.397H346.13C304.091 626.397 269.848 593.013 268.467 551.31H268.424Z" fill="#5BD5AB"/>
</g>
<g filter="url(#filter1_i_69_8810)">
<mask id="path-2-outside-1_69_8810" maskUnits="userSpaceOnUse" x="2" y="284" width="1062" height="151" fill="black">
<rect fill="white" x="2" y="284" width="1062" height="151"/>
<path d="M3 433.923V390.901C6.77387 390.901 9.96715 389.972 12.5798 388.114C15.2506 386.198 17.4278 383.527 19.1115 380.102C20.7953 376.618 22.1306 372.554 23.1176 367.909C24.1047 363.264 24.8304 358.213 25.2949 352.756C25.8755 345.788 26.398 338.937 26.8625 332.202C27.327 325.409 27.7914 318.384 28.2559 311.127C28.7204 303.811 29.2429 295.915 29.8235 287.439L113.081 287.613V390.901H122.661V433.923H98.9725V413.021H26.6883V433.923H3ZM38.3583 390.901H89.3927V309.733L51.4217 309.559C51.0153 315.307 50.6669 320.591 50.3766 325.409C50.1444 330.228 49.8541 335.105 49.5057 340.04C49.1574 344.976 48.6929 350.491 48.1123 356.587C47.5317 362.684 46.9511 367.706 46.3705 371.654C45.7899 375.544 44.89 378.94 43.6707 381.843C42.5095 384.746 40.7387 387.765 38.3583 390.901Z"/>
<path d="M141.792 413.021V287.613H223.656V309.733H165.48V336.557H213.205V358.678H165.48V390.901H223.656V413.021H141.792Z"/>
<path d="M244.53 413.021V287.613H347.992V413.021H324.304V309.733H268.218V413.021H244.53Z"/>
<path d="M372.443 413.021V287.613H425.393C426.612 287.613 428.238 287.671 430.27 287.787C432.36 287.845 434.218 288.019 435.844 288.309C443.333 289.471 449.459 291.938 454.22 295.712C459.039 299.486 462.58 304.247 464.844 309.995C467.109 315.684 468.241 322.042 468.241 329.067C468.241 336.092 467.08 342.479 464.757 348.227C462.493 353.917 458.951 358.649 454.132 362.422C449.372 366.196 443.275 368.664 435.844 369.825C434.218 370.057 432.36 370.231 430.27 370.348C428.18 370.464 426.554 370.522 425.393 370.522H396.131V413.021H372.443ZM396.131 348.401H424.348C425.567 348.401 426.903 348.343 428.354 348.227C429.806 348.111 431.141 347.879 432.36 347.53C435.553 346.659 438.021 345.208 439.763 343.176C441.505 341.086 442.695 338.792 443.333 336.296C444.03 333.741 444.378 331.332 444.378 329.067C444.378 326.803 444.03 324.422 443.333 321.926C442.695 319.371 441.505 317.078 439.763 315.046C438.021 312.956 435.553 311.475 432.36 310.604C431.141 310.256 429.806 310.024 428.354 309.908C426.903 309.791 425.567 309.733 424.348 309.733H396.131V348.401Z"/>
<path d="M485.727 413.021V287.613H567.591V309.733H509.415V336.557H557.14V358.678H509.415V390.901H567.591V413.021H485.727Z"/>
<path d="M637.013 415.634C624.472 415.634 613.644 412.905 604.529 407.448C595.472 401.99 588.476 394.355 583.54 384.543C578.664 374.731 576.225 363.322 576.225 350.317C576.225 337.312 578.664 325.903 583.54 316.091C588.476 306.279 595.472 298.644 604.529 293.186C613.644 287.729 624.472 285 637.013 285C651.412 285 663.489 288.571 673.243 295.712C683.055 302.853 689.964 312.52 693.97 324.713L670.107 331.332C667.785 323.726 663.866 317.833 658.35 313.652C652.835 309.414 645.722 307.295 637.013 307.295C629.059 307.295 622.411 309.066 617.07 312.607C611.786 316.149 607.809 321.142 605.139 327.587C602.468 334.031 601.133 341.608 601.133 350.317C601.133 359.026 602.468 366.603 605.139 373.047C607.809 379.492 611.786 384.485 617.07 388.027C622.411 391.568 629.059 393.339 637.013 393.339C645.722 393.339 652.835 391.22 658.35 386.982C663.866 382.743 667.785 376.85 670.107 369.303L693.97 375.921C689.964 388.114 683.055 397.781 673.243 404.922C663.489 412.063 651.412 415.634 637.013 415.634Z"/>
<path d="M766.967 415.634C754.426 415.634 743.598 412.905 734.483 407.448C725.425 401.99 718.429 394.355 713.494 384.543C708.617 374.731 706.179 363.322 706.179 350.317C706.179 337.312 708.617 325.903 713.494 316.091C718.429 306.279 725.425 298.644 734.483 293.186C743.598 287.729 754.426 285 766.967 285C781.366 285 793.442 288.571 803.196 295.712C813.008 302.853 819.917 312.52 823.923 324.713L800.061 331.332C797.739 323.726 793.82 317.833 788.304 313.652C782.788 309.414 775.676 307.295 766.967 307.295C759.013 307.295 752.365 309.066 747.024 312.607C741.74 316.149 737.763 321.142 735.092 327.587C732.422 334.031 731.086 341.608 731.086 350.317C731.086 359.026 732.422 366.603 735.092 373.047C737.763 379.492 741.74 384.485 747.024 388.027C752.365 391.568 759.013 393.339 766.967 393.339C775.676 393.339 782.788 391.22 788.304 386.982C793.82 382.743 797.739 376.85 800.061 369.303L823.923 375.921C819.917 388.114 813.008 397.781 803.196 404.922C793.442 412.063 781.366 415.634 766.967 415.634Z"/>
<path d="M945.691 413.021H921.654V329.416L867.136 413.021H843.099V287.613H867.136V371.218L921.654 287.613H945.691V413.021Z"/>
<path d="M1062.31 413.021H1038.62V370.522H1009.36L998.905 369.825C987.758 368.083 979.571 363.497 974.346 356.065C969.121 348.575 966.508 339.576 966.508 329.067C966.508 322.042 967.64 315.684 969.904 309.995C972.227 304.247 975.768 299.486 980.529 295.712C985.29 291.938 991.416 289.471 998.905 288.309C1000.59 288.019 1002.45 287.845 1004.48 287.787C1006.51 287.671 1008.14 287.613 1009.36 287.613H1062.31V413.021ZM991.59 413.021H964.766L991.938 357.284L1016.32 361.987L991.59 413.021ZM1038.62 348.401V309.733H1010.4C1009.18 309.733 1007.85 309.791 1006.39 309.908C1004.94 310.024 1003.61 310.256 1002.39 310.604C999.195 311.475 996.728 312.956 994.986 315.046C993.244 317.078 992.025 319.371 991.328 321.926C990.69 324.422 990.37 326.803 990.37 329.067C990.37 331.332 990.69 333.741 991.328 336.296C992.025 338.792 993.244 341.086 994.986 343.176C996.728 345.208 999.195 346.659 1002.39 347.53C1003.61 347.879 1004.94 348.111 1006.39 348.227C1007.85 348.343 1009.18 348.401 1010.4 348.401H1038.62Z"/>
</mask>
<path d="M3 433.923V390.901C6.77387 390.901 9.96715 389.972 12.5798 388.114C15.2506 386.198 17.4278 383.527 19.1115 380.102C20.7953 376.618 22.1306 372.554 23.1176 367.909C24.1047 363.264 24.8304 358.213 25.2949 352.756C25.8755 345.788 26.398 338.937 26.8625 332.202C27.327 325.409 27.7914 318.384 28.2559 311.127C28.7204 303.811 29.2429 295.915 29.8235 287.439L113.081 287.613V390.901H122.661V433.923H98.9725V413.021H26.6883V433.923H3ZM38.3583 390.901H89.3927V309.733L51.4217 309.559C51.0153 315.307 50.6669 320.591 50.3766 325.409C50.1444 330.228 49.8541 335.105 49.5057 340.04C49.1574 344.976 48.6929 350.491 48.1123 356.587C47.5317 362.684 46.9511 367.706 46.3705 371.654C45.7899 375.544 44.89 378.94 43.6707 381.843C42.5095 384.746 40.7387 387.765 38.3583 390.901Z" stroke="#232625" stroke-width="2" mask="url(#path-2-outside-1_69_8810)"/>
<path d="M141.792 413.021V287.613H223.656V309.733H165.48V336.557H213.205V358.678H165.48V390.901H223.656V413.021H141.792Z" stroke="#232625" stroke-width="2" mask="url(#path-2-outside-1_69_8810)"/>
<path d="M244.53 413.021V287.613H347.992V413.021H324.304V309.733H268.218V413.021H244.53Z" stroke="#232625" stroke-width="2" mask="url(#path-2-outside-1_69_8810)"/>
<path d="M372.443 413.021V287.613H425.393C426.612 287.613 428.238 287.671 430.27 287.787C432.36 287.845 434.218 288.019 435.844 288.309C443.333 289.471 449.459 291.938 454.22 295.712C459.039 299.486 462.58 304.247 464.844 309.995C467.109 315.684 468.241 322.042 468.241 329.067C468.241 336.092 467.08 342.479 464.757 348.227C462.493 353.917 458.951 358.649 454.132 362.422C449.372 366.196 443.275 368.664 435.844 369.825C434.218 370.057 432.36 370.231 430.27 370.348C428.18 370.464 426.554 370.522 425.393 370.522H396.131V413.021H372.443ZM396.131 348.401H424.348C425.567 348.401 426.903 348.343 428.354 348.227C429.806 348.111 431.141 347.879 432.36 347.53C435.553 346.659 438.021 345.208 439.763 343.176C441.505 341.086 442.695 338.792 443.333 336.296C444.03 333.741 444.378 331.332 444.378 329.067C444.378 326.803 444.03 324.422 443.333 321.926C442.695 319.371 441.505 317.078 439.763 315.046C438.021 312.956 435.553 311.475 432.36 310.604C431.141 310.256 429.806 310.024 428.354 309.908C426.903 309.791 425.567 309.733 424.348 309.733H396.131V348.401Z" stroke="#232625" stroke-width="2" mask="url(#path-2-outside-1_69_8810)"/>
<path d="M485.727 413.021V287.613H567.591V309.733H509.415V336.557H557.14V358.678H509.415V390.901H567.591V413.021H485.727Z" stroke="#232625" stroke-width="2" mask="url(#path-2-outside-1_69_8810)"/>
<path d="M637.013 415.634C624.472 415.634 613.644 412.905 604.529 407.448C595.472 401.99 588.476 394.355 583.54 384.543C578.664 374.731 576.225 363.322 576.225 350.317C576.225 337.312 578.664 325.903 583.54 316.091C588.476 306.279 595.472 298.644 604.529 293.186C613.644 287.729 624.472 285 637.013 285C651.412 285 663.489 288.571 673.243 295.712C683.055 302.853 689.964 312.52 693.97 324.713L670.107 331.332C667.785 323.726 663.866 317.833 658.35 313.652C652.835 309.414 645.722 307.295 637.013 307.295C629.059 307.295 622.411 309.066 617.07 312.607C611.786 316.149 607.809 321.142 605.139 327.587C602.468 334.031 601.133 341.608 601.133 350.317C601.133 359.026 602.468 366.603 605.139 373.047C607.809 379.492 611.786 384.485 617.07 388.027C622.411 391.568 629.059 393.339 637.013 393.339C645.722 393.339 652.835 391.22 658.35 386.982C663.866 382.743 667.785 376.85 670.107 369.303L693.97 375.921C689.964 388.114 683.055 397.781 673.243 404.922C663.489 412.063 651.412 415.634 637.013 415.634Z" stroke="#232625" stroke-width="2" mask="url(#path-2-outside-1_69_8810)"/>
<path d="M766.967 415.634C754.426 415.634 743.598 412.905 734.483 407.448C725.425 401.99 718.429 394.355 713.494 384.543C708.617 374.731 706.179 363.322 706.179 350.317C706.179 337.312 708.617 325.903 713.494 316.091C718.429 306.279 725.425 298.644 734.483 293.186C743.598 287.729 754.426 285 766.967 285C781.366 285 793.442 288.571 803.196 295.712C813.008 302.853 819.917 312.52 823.923 324.713L800.061 331.332C797.739 323.726 793.82 317.833 788.304 313.652C782.788 309.414 775.676 307.295 766.967 307.295C759.013 307.295 752.365 309.066 747.024 312.607C741.74 316.149 737.763 321.142 735.092 327.587C732.422 334.031 731.086 341.608 731.086 350.317C731.086 359.026 732.422 366.603 735.092 373.047C737.763 379.492 741.74 384.485 747.024 388.027C752.365 391.568 759.013 393.339 766.967 393.339C775.676 393.339 782.788 391.22 788.304 386.982C793.82 382.743 797.739 376.85 800.061 369.303L823.923 375.921C819.917 388.114 813.008 397.781 803.196 404.922C793.442 412.063 781.366 415.634 766.967 415.634Z" stroke="#232625" stroke-width="2" mask="url(#path-2-outside-1_69_8810)"/>
<path d="M945.691 413.021H921.654V329.416L867.136 413.021H843.099V287.613H867.136V371.218L921.654 287.613H945.691V413.021Z" stroke="#232625" stroke-width="2" mask="url(#path-2-outside-1_69_8810)"/>
<path d="M1062.31 413.021H1038.62V370.522H1009.36L998.905 369.825C987.758 368.083 979.571 363.497 974.346 356.065C969.121 348.575 966.508 339.576 966.508 329.067C966.508 322.042 967.64 315.684 969.904 309.995C972.227 304.247 975.768 299.486 980.529 295.712C985.29 291.938 991.416 289.471 998.905 288.309C1000.59 288.019 1002.45 287.845 1004.48 287.787C1006.51 287.671 1008.14 287.613 1009.36 287.613H1062.31V413.021ZM991.59 413.021H964.766L991.938 357.284L1016.32 361.987L991.59 413.021ZM1038.62 348.401V309.733H1010.4C1009.18 309.733 1007.85 309.791 1006.39 309.908C1004.94 310.024 1003.61 310.256 1002.39 310.604C999.195 311.475 996.728 312.956 994.986 315.046C993.244 317.078 992.025 319.371 991.328 321.926C990.69 324.422 990.37 326.803 990.37 329.067C990.37 331.332 990.69 333.741 991.328 336.296C992.025 338.792 993.244 341.086 994.986 343.176C996.728 345.208 999.195 346.659 1002.39 347.53C1003.61 347.879 1004.94 348.111 1006.39 348.227C1007.85 348.343 1009.18 348.401 1010.4 348.401H1038.62Z" stroke="#232625" stroke-width="2" mask="url(#path-2-outside-1_69_8810)"/>
</g>
<g filter="url(#filter2_i_69_8810)">
<mask id="path-3-outside-2_69_8810" maskUnits="userSpaceOnUse" x="449" y="23" width="801" height="131" fill="black">
<rect fill="white" x="449" y="23" width="801" height="131"/>
<path d="M501.268 152.673C492.519 152.673 484.827 151.386 478.193 148.813C471.616 146.239 466.069 142.951 461.551 138.948C457.033 134.888 453.516 130.656 451 126.252L470.73 112.527C472.102 115.386 474.047 118.217 476.563 121.02C479.079 123.822 482.425 126.138 486.6 127.968C490.774 129.798 496.007 130.713 502.298 130.713C508.245 130.713 513.02 129.855 516.623 128.139C520.283 126.424 522.914 124.222 524.515 121.534C526.174 118.846 527.003 116.016 527.003 113.042C527.003 109.096 525.831 106.065 523.486 103.949C521.198 101.833 518.225 100.375 514.565 99.574C510.904 98.7162 507.044 98.2301 502.984 98.1157C499.038 98.0013 496.179 97.9155 494.406 97.8584C492.69 97.8012 491.518 97.7726 490.889 97.7726C490.317 97.7726 489.773 97.7726 489.259 97.7726V75.8124C490.002 75.8124 491.089 75.8124 492.519 75.8124C494.005 75.8124 495.492 75.8124 496.979 75.8124C498.523 75.7552 499.781 75.698 500.754 75.6408C506.758 75.3549 511.762 74.0395 515.765 71.6948C519.826 69.3501 521.856 65.6901 521.856 60.7147C521.856 56.1397 520.055 52.5082 516.452 49.8204C512.906 47.1326 508.131 45.7886 502.126 45.7886C496.464 45.7886 491.403 47.0182 486.943 49.4773C482.539 51.8792 479.308 54.5384 477.249 57.455L461.294 40.2986C465.583 35.8379 471.33 32.0063 478.536 28.8038C485.742 25.6013 493.834 24 502.812 24C508.245 24 513.564 24.7148 518.768 26.1445C523.972 27.5171 528.661 29.6616 532.836 32.5782C537.011 35.4376 540.328 39.1262 542.787 43.6441C545.303 48.1619 546.561 53.5662 546.561 59.8569C546.561 65.1754 545.618 70.2079 543.73 74.9545C541.843 79.644 539.127 83.5899 535.581 86.7925C540.728 89.08 544.703 92.3969 547.505 96.7432C550.307 101.089 551.708 106.522 551.708 113.042C551.708 121.22 549.421 128.282 544.846 134.23C540.328 140.12 534.237 144.667 526.574 147.869C518.968 151.072 510.533 152.673 501.268 152.673Z"/>
<path d="M562.001 150.1L599.745 26.5735H634.572L672.316 150.1H648.297L614.671 41.1564H619.132L586.02 150.1H562.001ZM584.647 124.365V102.576H649.841V124.365H584.647Z"/>
<path d="M687.691 150.1V26.5735H737.102C745.909 26.5735 753.029 28.3463 758.462 31.892C763.895 35.3804 767.869 39.7839 770.385 45.1024C772.902 50.4209 774.16 55.7966 774.16 61.2294C774.16 68.1492 772.587 73.8966 769.442 78.4716C766.354 83.0466 762.093 86.1062 756.66 87.6503V83.3612C764.381 84.9625 770.157 88.5367 773.988 94.0839C777.877 99.6312 779.821 105.836 779.821 112.699C779.821 120.076 778.449 126.567 775.704 132.171C773.016 137.776 768.898 142.179 763.351 145.382C757.804 148.527 750.827 150.1 742.42 150.1H687.691ZM711.367 128.139H740.019C743.164 128.139 745.966 127.482 748.425 126.166C750.884 124.794 752.8 122.907 754.173 120.505C755.602 118.046 756.317 115.158 756.317 111.841C756.317 108.924 755.717 106.322 754.516 104.035C753.315 101.747 751.485 99.9457 749.026 98.6304C746.624 97.2579 743.621 96.5716 740.019 96.5716H711.367V128.139ZM711.367 74.783H736.759C739.389 74.783 741.734 74.3255 743.793 73.4105C745.852 72.4955 747.482 71.0944 748.683 69.2071C749.883 67.2627 750.484 64.7751 750.484 61.7441C750.484 57.9697 749.312 54.7958 746.967 52.2223C744.622 49.6488 741.219 48.3621 736.759 48.3621H711.367V74.783Z"/>
<path d="M897.981 150.1H874.305V67.7489L820.605 150.1H796.93V26.5735H820.605V108.924L874.305 26.5735H897.981V150.1Z"/>
<path d="M974.93 152.673C962.577 152.673 951.912 149.985 942.933 144.61C934.012 139.234 927.121 131.714 922.26 122.049C917.456 112.384 915.054 101.147 915.054 88.3365C915.054 75.5264 917.456 64.289 922.26 54.6242C927.121 44.9594 934.012 37.4392 942.933 32.0635C951.912 26.6878 962.577 24 974.93 24C989.113 24 1001.01 27.5171 1010.62 34.5512C1020.28 41.5853 1027.09 51.1071 1031.03 63.1166L1007.53 69.6361C1005.24 62.1444 1001.38 56.3398 995.947 52.2223C990.514 48.0476 983.508 45.9602 974.93 45.9602C967.095 45.9602 960.547 47.7044 955.286 51.1929C950.082 54.6814 946.164 59.5996 943.534 65.9474C940.903 72.2953 939.588 79.7583 939.588 88.3365C939.588 96.9147 940.903 104.378 943.534 110.726C946.164 117.074 950.082 121.992 955.286 125.48C960.547 128.969 967.095 130.713 974.93 130.713C983.508 130.713 990.514 128.626 995.947 124.451C1001.38 120.276 1005.24 114.471 1007.53 107.037L1031.03 113.556C1027.09 125.566 1020.28 135.088 1010.62 142.122C1001.01 149.156 989.113 152.673 974.93 152.673Z"/>
<path d="M1078.57 150.1V48.3621H1039.63V26.5735H1140.85V48.3621H1101.9V150.1H1078.57Z"/>
<path d="M1154.46 150.1V26.5735H1177.8V68.4351H1206.62C1207.76 68.4351 1209.36 68.4923 1211.42 68.6067C1213.48 68.6639 1215.31 68.8354 1216.91 69.1214C1224.23 70.2651 1230.24 72.6956 1234.93 76.4128C1239.67 80.1301 1243.16 84.8195 1245.39 90.4811C1247.68 96.0855 1248.82 102.348 1248.82 109.267C1248.82 116.187 1247.71 122.478 1245.48 128.139C1243.25 133.744 1239.76 138.405 1235.01 142.122C1230.32 145.839 1224.29 148.27 1216.91 149.413C1215.31 149.642 1213.48 149.814 1211.42 149.928C1209.42 150.042 1207.82 150.1 1206.62 150.1H1154.46ZM1177.8 128.311H1205.59C1206.79 128.311 1208.1 128.254 1209.53 128.139C1210.96 128.025 1212.28 127.796 1213.48 127.453C1216.63 126.595 1219.06 125.166 1220.77 123.164C1222.49 121.105 1223.66 118.846 1224.29 116.387C1224.98 113.871 1225.32 111.498 1225.32 109.267C1225.32 107.037 1224.98 104.692 1224.29 102.233C1223.66 99.717 1222.49 97.458 1220.77 95.4565C1219.06 93.3977 1216.63 91.9394 1213.48 91.0816C1212.28 90.7384 1210.96 90.5097 1209.53 90.3953C1208.1 90.2809 1206.79 90.2238 1205.59 90.2238H1177.8V128.311Z"/>
</mask>
<path d="M501.268 152.673C492.519 152.673 484.827 151.386 478.193 148.813C471.616 146.239 466.069 142.951 461.551 138.948C457.033 134.888 453.516 130.656 451 126.252L470.73 112.527C472.102 115.386 474.047 118.217 476.563 121.02C479.079 123.822 482.425 126.138 486.6 127.968C490.774 129.798 496.007 130.713 502.298 130.713C508.245 130.713 513.02 129.855 516.623 128.139C520.283 126.424 522.914 124.222 524.515 121.534C526.174 118.846 527.003 116.016 527.003 113.042C527.003 109.096 525.831 106.065 523.486 103.949C521.198 101.833 518.225 100.375 514.565 99.574C510.904 98.7162 507.044 98.2301 502.984 98.1157C499.038 98.0013 496.179 97.9155 494.406 97.8584C492.69 97.8012 491.518 97.7726 490.889 97.7726C490.317 97.7726 489.773 97.7726 489.259 97.7726V75.8124C490.002 75.8124 491.089 75.8124 492.519 75.8124C494.005 75.8124 495.492 75.8124 496.979 75.8124C498.523 75.7552 499.781 75.698 500.754 75.6408C506.758 75.3549 511.762 74.0395 515.765 71.6948C519.826 69.3501 521.856 65.6901 521.856 60.7147C521.856 56.1397 520.055 52.5082 516.452 49.8204C512.906 47.1326 508.131 45.7886 502.126 45.7886C496.464 45.7886 491.403 47.0182 486.943 49.4773C482.539 51.8792 479.308 54.5384 477.249 57.455L461.294 40.2986C465.583 35.8379 471.33 32.0063 478.536 28.8038C485.742 25.6013 493.834 24 502.812 24C508.245 24 513.564 24.7148 518.768 26.1445C523.972 27.5171 528.661 29.6616 532.836 32.5782C537.011 35.4376 540.328 39.1262 542.787 43.6441C545.303 48.1619 546.561 53.5662 546.561 59.8569C546.561 65.1754 545.618 70.2079 543.73 74.9545C541.843 79.644 539.127 83.5899 535.581 86.7925C540.728 89.08 544.703 92.3969 547.505 96.7432C550.307 101.089 551.708 106.522 551.708 113.042C551.708 121.22 549.421 128.282 544.846 134.23C540.328 140.12 534.237 144.667 526.574 147.869C518.968 151.072 510.533 152.673 501.268 152.673Z" stroke="#232625" stroke-width="2" mask="url(#path-3-outside-2_69_8810)"/>
<path d="M562.001 150.1L599.745 26.5735H634.572L672.316 150.1H648.297L614.671 41.1564H619.132L586.02 150.1H562.001ZM584.647 124.365V102.576H649.841V124.365H584.647Z" stroke="#232625" stroke-width="2" mask="url(#path-3-outside-2_69_8810)"/>
<path d="M687.691 150.1V26.5735H737.102C745.909 26.5735 753.029 28.3463 758.462 31.892C763.895 35.3804 767.869 39.7839 770.385 45.1024C772.902 50.4209 774.16 55.7966 774.16 61.2294C774.16 68.1492 772.587 73.8966 769.442 78.4716C766.354 83.0466 762.093 86.1062 756.66 87.6503V83.3612C764.381 84.9625 770.157 88.5367 773.988 94.0839C777.877 99.6312 779.821 105.836 779.821 112.699C779.821 120.076 778.449 126.567 775.704 132.171C773.016 137.776 768.898 142.179 763.351 145.382C757.804 148.527 750.827 150.1 742.42 150.1H687.691ZM711.367 128.139H740.019C743.164 128.139 745.966 127.482 748.425 126.166C750.884 124.794 752.8 122.907 754.173 120.505C755.602 118.046 756.317 115.158 756.317 111.841C756.317 108.924 755.717 106.322 754.516 104.035C753.315 101.747 751.485 99.9457 749.026 98.6304C746.624 97.2579 743.621 96.5716 740.019 96.5716H711.367V128.139ZM711.367 74.783H736.759C739.389 74.783 741.734 74.3255 743.793 73.4105C745.852 72.4955 747.482 71.0944 748.683 69.2071C749.883 67.2627 750.484 64.7751 750.484 61.7441C750.484 57.9697 749.312 54.7958 746.967 52.2223C744.622 49.6488 741.219 48.3621 736.759 48.3621H711.367V74.783Z" stroke="#232625" stroke-width="2" mask="url(#path-3-outside-2_69_8810)"/>
<path d="M897.981 150.1H874.305V67.7489L820.605 150.1H796.93V26.5735H820.605V108.924L874.305 26.5735H897.981V150.1Z" stroke="#232625" stroke-width="2" mask="url(#path-3-outside-2_69_8810)"/>
<path d="M974.93 152.673C962.577 152.673 951.912 149.985 942.933 144.61C934.012 139.234 927.121 131.714 922.26 122.049C917.456 112.384 915.054 101.147 915.054 88.3365C915.054 75.5264 917.456 64.289 922.26 54.6242C927.121 44.9594 934.012 37.4392 942.933 32.0635C951.912 26.6878 962.577 24 974.93 24C989.113 24 1001.01 27.5171 1010.62 34.5512C1020.28 41.5853 1027.09 51.1071 1031.03 63.1166L1007.53 69.6361C1005.24 62.1444 1001.38 56.3398 995.947 52.2223C990.514 48.0476 983.508 45.9602 974.93 45.9602C967.095 45.9602 960.547 47.7044 955.286 51.1929C950.082 54.6814 946.164 59.5996 943.534 65.9474C940.903 72.2953 939.588 79.7583 939.588 88.3365C939.588 96.9147 940.903 104.378 943.534 110.726C946.164 117.074 950.082 121.992 955.286 125.48C960.547 128.969 967.095 130.713 974.93 130.713C983.508 130.713 990.514 128.626 995.947 124.451C1001.38 120.276 1005.24 114.471 1007.53 107.037L1031.03 113.556C1027.09 125.566 1020.28 135.088 1010.62 142.122C1001.01 149.156 989.113 152.673 974.93 152.673Z" stroke="#232625" stroke-width="2" mask="url(#path-3-outside-2_69_8810)"/>
<path d="M1078.57 150.1V48.3621H1039.63V26.5735H1140.85V48.3621H1101.9V150.1H1078.57Z" stroke="#232625" stroke-width="2" mask="url(#path-3-outside-2_69_8810)"/>
<path d="M1154.46 150.1V26.5735H1177.8V68.4351H1206.62C1207.76 68.4351 1209.36 68.4923 1211.42 68.6067C1213.48 68.6639 1215.31 68.8354 1216.91 69.1214C1224.23 70.2651 1230.24 72.6956 1234.93 76.4128C1239.67 80.1301 1243.16 84.8195 1245.39 90.4811C1247.68 96.0855 1248.82 102.348 1248.82 109.267C1248.82 116.187 1247.71 122.478 1245.48 128.139C1243.25 133.744 1239.76 138.405 1235.01 142.122C1230.32 145.839 1224.29 148.27 1216.91 149.413C1215.31 149.642 1213.48 149.814 1211.42 149.928C1209.42 150.042 1207.82 150.1 1206.62 150.1H1154.46ZM1177.8 128.311H1205.59C1206.79 128.311 1208.1 128.254 1209.53 128.139C1210.96 128.025 1212.28 127.796 1213.48 127.453C1216.63 126.595 1219.06 125.166 1220.77 123.164C1222.49 121.105 1223.66 118.846 1224.29 116.387C1224.98 113.871 1225.32 111.498 1225.32 109.267C1225.32 107.037 1224.98 104.692 1224.29 102.233C1223.66 99.717 1222.49 97.458 1220.77 95.4565C1219.06 93.3977 1216.63 91.9394 1213.48 91.0816C1212.28 90.7384 1210.96 90.5097 1209.53 90.3953C1208.1 90.2809 1206.79 90.2238 1205.59 90.2238H1177.8V128.311Z" stroke="#232625" stroke-width="2" mask="url(#path-3-outside-2_69_8810)"/>
</g>
<g filter="url(#filter3_i_69_8810)">
<mask id="path-4-outside-3_69_8810" maskUnits="userSpaceOnUse" x="259" y="163" width="774" height="112" fill="black">
<rect fill="white" x="259" y="163" width="774" height="112"/>
<path d="M260 271.483V166.194H304.455C305.479 166.194 306.844 166.242 308.55 166.34C310.305 166.388 311.865 166.535 313.229 166.778C319.518 167.753 324.66 169.825 328.657 172.993C332.703 176.162 335.677 180.159 337.578 184.985C339.479 189.762 340.429 195.099 340.429 200.997C340.429 206.896 339.454 212.257 337.504 217.083C335.603 221.86 332.63 225.833 328.584 229.001C324.587 232.17 319.469 234.241 313.229 235.216C311.865 235.411 310.305 235.558 308.55 235.655C306.795 235.753 305.43 235.801 304.455 235.801H279.888V271.483H260ZM279.888 217.229H303.578C304.602 217.229 305.723 217.181 306.941 217.083C308.16 216.986 309.281 216.791 310.305 216.498C312.986 215.767 315.057 214.548 316.52 212.842C317.982 211.088 318.981 209.162 319.518 207.066C320.103 204.921 320.395 202.898 320.395 200.997C320.395 199.096 320.103 197.098 319.518 195.002C318.981 192.857 317.982 190.932 316.52 189.226C315.057 187.471 312.986 186.228 310.305 185.497C309.281 185.204 308.16 185.009 306.941 184.912C305.723 184.814 304.602 184.765 303.578 184.765H279.888V217.229Z"/>
<path d="M355.11 271.483V166.194H423.84V184.765H374.998V207.286H415.066V225.857H374.998V252.911H423.84V271.483H355.11Z"/>
<path d="M441.365 271.483V166.194H483.481C490.988 166.194 497.057 167.705 501.687 170.727C506.318 173.7 509.706 177.454 511.851 181.987C513.995 186.52 515.068 191.102 515.068 195.733C515.068 201.631 513.727 206.53 511.046 210.43C508.414 214.329 504.783 216.937 500.152 218.253V214.597C506.732 215.962 511.656 219.009 514.922 223.737C518.236 228.465 519.894 233.754 519.894 239.603C519.894 245.891 518.724 251.424 516.384 256.201C514.093 260.978 510.583 264.731 505.855 267.461C501.127 270.142 495.18 271.483 488.014 271.483H441.365ZM461.546 252.765H485.967C488.648 252.765 491.037 252.204 493.133 251.083C495.229 249.913 496.862 248.304 498.031 246.257C499.25 244.161 499.859 241.699 499.859 238.872C499.859 236.386 499.348 234.168 498.324 232.219C497.3 230.269 495.74 228.733 493.644 227.612C491.597 226.442 489.038 225.857 485.967 225.857H461.546V252.765ZM461.546 207.286H483.189C485.431 207.286 487.429 206.896 489.184 206.116C490.939 205.336 492.328 204.141 493.352 202.533C494.376 200.876 494.887 198.755 494.887 196.172C494.887 192.954 493.888 190.249 491.89 188.056C489.891 185.862 486.991 184.765 483.189 184.765H461.546V207.286Z"/>
<path d="M534.476 271.483V166.194H554.364V209.479H601.451V166.194H621.339V271.483H601.451V228.051H554.364V271.483H534.476Z"/>
<path d="M687.054 273.676C676.525 273.676 667.434 271.385 659.781 266.803C652.177 262.221 646.303 255.811 642.16 247.573C638.065 239.335 636.018 229.757 636.018 218.838C636.018 207.919 638.065 198.341 642.16 190.103C646.303 181.865 652.177 175.455 659.781 170.873C667.434 166.291 676.525 164 687.054 164C697.583 164 706.649 166.291 714.253 170.873C721.906 175.455 727.78 181.865 731.875 190.103C736.018 198.341 738.09 207.919 738.09 218.838C738.09 229.757 736.018 239.335 731.875 247.573C727.78 255.811 721.906 262.221 714.253 266.803C706.649 271.385 697.583 273.676 687.054 273.676ZM687.054 254.958C693.732 255.056 699.289 253.618 703.724 250.644C708.16 247.671 711.475 243.454 713.668 237.995C715.911 232.535 717.032 226.15 717.032 218.838C717.032 211.526 715.911 205.189 713.668 199.828C711.475 194.466 708.16 190.298 703.724 187.324C699.289 184.351 693.732 182.816 687.054 182.718C680.376 182.621 674.819 184.059 670.383 187.032C665.947 190.005 662.608 194.222 660.366 199.681C658.172 205.141 657.075 211.526 657.075 218.838C657.075 226.15 658.172 232.487 660.366 237.849C662.608 243.211 665.947 247.378 670.383 250.352C674.819 253.325 680.376 254.861 687.054 254.958Z"/>
<path d="M797.872 273.676C787.343 273.676 778.252 271.385 770.599 266.803C762.995 262.221 757.121 255.811 752.978 247.573C748.883 239.335 746.836 229.757 746.836 218.838C746.836 207.919 748.883 198.341 752.978 190.103C757.121 181.865 762.995 175.455 770.599 170.873C778.252 166.291 787.343 164 797.872 164C809.961 164 820.1 166.998 828.289 172.993C836.527 178.989 842.328 187.105 845.691 197.342L825.657 202.898C823.707 196.513 820.417 191.565 815.786 188.056C811.155 184.497 805.184 182.718 797.872 182.718C791.194 182.718 785.613 184.205 781.128 187.178C776.693 190.152 773.353 194.344 771.111 199.754C768.869 205.165 767.748 211.526 767.748 218.838C767.748 226.15 768.869 232.511 771.111 237.922C773.353 243.332 776.693 247.524 781.128 250.498C785.613 253.471 791.194 254.958 797.872 254.958C805.184 254.958 811.155 253.179 815.786 249.62C820.417 246.062 823.707 241.114 825.657 234.778L845.691 240.335C842.328 250.571 836.527 258.687 828.289 264.683C820.1 270.678 809.961 273.676 797.872 273.676Z"/>
<path d="M886.212 271.483V184.765H853.016V166.194H939.295V184.765H906.1V271.483H886.212Z"/>
<path d="M950.899 271.483V166.194H970.787V201.875H995.354C996.329 201.875 997.694 201.924 999.449 202.021C1001.2 202.07 1002.76 202.216 1004.13 202.46C1010.37 203.435 1015.49 205.506 1019.48 208.675C1023.53 211.843 1026.5 215.84 1028.4 220.666C1030.35 225.443 1031.33 230.781 1031.33 236.679C1031.33 242.577 1030.38 247.939 1028.48 252.765C1026.58 257.542 1023.6 261.514 1019.56 264.683C1015.56 267.851 1010.42 269.923 1004.13 270.898C1002.76 271.093 1001.2 271.239 999.449 271.336C997.743 271.434 996.378 271.483 995.354 271.483H950.899ZM970.787 252.911H994.477C995.5 252.911 996.622 252.862 997.84 252.765C999.059 252.667 1000.18 252.472 1001.2 252.18C1003.88 251.448 1005.96 250.23 1007.42 248.524C1008.88 246.769 1009.88 244.843 1010.42 242.747C1011 240.603 1011.29 238.58 1011.29 236.679C1011.29 234.778 1011 232.779 1010.42 230.683C1009.88 228.538 1008.88 226.613 1007.42 224.907C1005.96 223.152 1003.88 221.909 1001.2 221.178C1000.18 220.885 999.059 220.69 997.84 220.593C996.622 220.495 995.5 220.447 994.477 220.447H970.787V252.911Z"/>
</mask>
<path d="M260 271.483V166.194H304.455C305.479 166.194 306.844 166.242 308.55 166.34C310.305 166.388 311.865 166.535 313.229 166.778C319.518 167.753 324.66 169.825 328.657 172.993C332.703 176.162 335.677 180.159 337.578 184.985C339.479 189.762 340.429 195.099 340.429 200.997C340.429 206.896 339.454 212.257 337.504 217.083C335.603 221.86 332.63 225.833 328.584 229.001C324.587 232.17 319.469 234.241 313.229 235.216C311.865 235.411 310.305 235.558 308.55 235.655C306.795 235.753 305.43 235.801 304.455 235.801H279.888V271.483H260ZM279.888 217.229H303.578C304.602 217.229 305.723 217.181 306.941 217.083C308.16 216.986 309.281 216.791 310.305 216.498C312.986 215.767 315.057 214.548 316.52 212.842C317.982 211.088 318.981 209.162 319.518 207.066C320.103 204.921 320.395 202.898 320.395 200.997C320.395 199.096 320.103 197.098 319.518 195.002C318.981 192.857 317.982 190.932 316.52 189.226C315.057 187.471 312.986 186.228 310.305 185.497C309.281 185.204 308.16 185.009 306.941 184.912C305.723 184.814 304.602 184.765 303.578 184.765H279.888V217.229Z" stroke="#232625" stroke-width="2" mask="url(#path-4-outside-3_69_8810)"/>
<path d="M355.11 271.483V166.194H423.84V184.765H374.998V207.286H415.066V225.857H374.998V252.911H423.84V271.483H355.11Z" stroke="#232625" stroke-width="2" mask="url(#path-4-outside-3_69_8810)"/>
<path d="M441.365 271.483V166.194H483.481C490.988 166.194 497.057 167.705 501.687 170.727C506.318 173.7 509.706 177.454 511.851 181.987C513.995 186.52 515.068 191.102 515.068 195.733C515.068 201.631 513.727 206.53 511.046 210.43C508.414 214.329 504.783 216.937 500.152 218.253V214.597C506.732 215.962 511.656 219.009 514.922 223.737C518.236 228.465 519.894 233.754 519.894 239.603C519.894 245.891 518.724 251.424 516.384 256.201C514.093 260.978 510.583 264.731 505.855 267.461C501.127 270.142 495.18 271.483 488.014 271.483H441.365ZM461.546 252.765H485.967C488.648 252.765 491.037 252.204 493.133 251.083C495.229 249.913 496.862 248.304 498.031 246.257C499.25 244.161 499.859 241.699 499.859 238.872C499.859 236.386 499.348 234.168 498.324 232.219C497.3 230.269 495.74 228.733 493.644 227.612C491.597 226.442 489.038 225.857 485.967 225.857H461.546V252.765ZM461.546 207.286H483.189C485.431 207.286 487.429 206.896 489.184 206.116C490.939 205.336 492.328 204.141 493.352 202.533C494.376 200.876 494.887 198.755 494.887 196.172C494.887 192.954 493.888 190.249 491.89 188.056C489.891 185.862 486.991 184.765 483.189 184.765H461.546V207.286Z" stroke="#232625" stroke-width="2" mask="url(#path-4-outside-3_69_8810)"/>
<path d="M534.476 271.483V166.194H554.364V209.479H601.451V166.194H621.339V271.483H601.451V228.051H554.364V271.483H534.476Z" stroke="#232625" stroke-width="2" mask="url(#path-4-outside-3_69_8810)"/>
<path d="M687.054 273.676C676.525 273.676 667.434 271.385 659.781 266.803C652.177 262.221 646.303 255.811 642.16 247.573C638.065 239.335 636.018 229.757 636.018 218.838C636.018 207.919 638.065 198.341 642.16 190.103C646.303 181.865 652.177 175.455 659.781 170.873C667.434 166.291 676.525 164 687.054 164C697.583 164 706.649 166.291 714.253 170.873C721.906 175.455 727.78 181.865 731.875 190.103C736.018 198.341 738.09 207.919 738.09 218.838C738.09 229.757 736.018 239.335 731.875 247.573C727.78 255.811 721.906 262.221 714.253 266.803C706.649 271.385 697.583 273.676 687.054 273.676ZM687.054 254.958C693.732 255.056 699.289 253.618 703.724 250.644C708.16 247.671 711.475 243.454 713.668 237.995C715.911 232.535 717.032 226.15 717.032 218.838C717.032 211.526 715.911 205.189 713.668 199.828C711.475 194.466 708.16 190.298 703.724 187.324C699.289 184.351 693.732 182.816 687.054 182.718C680.376 182.621 674.819 184.059 670.383 187.032C665.947 190.005 662.608 194.222 660.366 199.681C658.172 205.141 657.075 211.526 657.075 218.838C657.075 226.15 658.172 232.487 660.366 237.849C662.608 243.211 665.947 247.378 670.383 250.352C674.819 253.325 680.376 254.861 687.054 254.958Z" stroke="#232625" stroke-width="2" mask="url(#path-4-outside-3_69_8810)"/>
<path d="M797.872 273.676C787.343 273.676 778.252 271.385 770.599 266.803C762.995 262.221 757.121 255.811 752.978 247.573C748.883 239.335 746.836 229.757 746.836 218.838C746.836 207.919 748.883 198.341 752.978 190.103C757.121 181.865 762.995 175.455 770.599 170.873C778.252 166.291 787.343 164 797.872 164C809.961 164 820.1 166.998 828.289 172.993C836.527 178.989 842.328 187.105 845.691 197.342L825.657 202.898C823.707 196.513 820.417 191.565 815.786 188.056C811.155 184.497 805.184 182.718 797.872 182.718C791.194 182.718 785.613 184.205 781.128 187.178C776.693 190.152 773.353 194.344 771.111 199.754C768.869 205.165 767.748 211.526 767.748 218.838C767.748 226.15 768.869 232.511 771.111 237.922C773.353 243.332 776.693 247.524 781.128 250.498C785.613 253.471 791.194 254.958 797.872 254.958C805.184 254.958 811.155 253.179 815.786 249.62C820.417 246.062 823.707 241.114 825.657 234.778L845.691 240.335C842.328 250.571 836.527 258.687 828.289 264.683C820.1 270.678 809.961 273.676 797.872 273.676Z" stroke="#232625" stroke-width="2" mask="url(#path-4-outside-3_69_8810)"/>
<path d="M886.212 271.483V184.765H853.016V166.194H939.295V184.765H906.1V271.483H886.212Z" stroke="#232625" stroke-width="2" mask="url(#path-4-outside-3_69_8810)"/>
<path d="M950.899 271.483V166.194H970.787V201.875H995.354C996.329 201.875 997.694 201.924 999.449 202.021C1001.2 202.07 1002.76 202.216 1004.13 202.46C1010.37 203.435 1015.49 205.506 1019.48 208.675C1023.53 211.843 1026.5 215.84 1028.4 220.666C1030.35 225.443 1031.33 230.781 1031.33 236.679C1031.33 242.577 1030.38 247.939 1028.48 252.765C1026.58 257.542 1023.6 261.514 1019.56 264.683C1015.56 267.851 1010.42 269.923 1004.13 270.898C1002.76 271.093 1001.2 271.239 999.449 271.336C997.743 271.434 996.378 271.483 995.354 271.483H950.899ZM970.787 252.911H994.477C995.5 252.911 996.622 252.862 997.84 252.765C999.059 252.667 1000.18 252.472 1001.2 252.18C1003.88 251.448 1005.96 250.23 1007.42 248.524C1008.88 246.769 1009.88 244.843 1010.42 242.747C1011 240.603 1011.29 238.58 1011.29 236.679C1011.29 234.778 1011 232.779 1010.42 230.683C1009.88 228.538 1008.88 226.613 1007.42 224.907C1005.96 223.152 1003.88 221.909 1001.2 221.178C1000.18 220.885 999.059 220.69 997.84 220.593C996.622 220.495 995.5 220.447 994.477 220.447H970.787V252.911Z" stroke="#232625" stroke-width="2" mask="url(#path-4-outside-3_69_8810)"/>
</g>
<mask id="mask0_69_8810" style="mask-type:alpha" maskUnits="userSpaceOnUse" x="3" y="3" width="1267" height="624">
<path fill-rule="evenodd" clip-rule="evenodd" d="M1269 159.286V3H584.051C541.624 3 507.094 36.8123 505.938 78.9602H505.908L505.908 79.8335C500.582 138.558 483.441 155.728 429.07 159.286L346.13 159.286C304.091 159.286 269.849 192.669 268.467 234.373H268.424L268.424 235.246C263.097 293.971 245.956 311.141 191.586 314.698H81.1429C37.9858 314.698 3 349.684 3 392.841C3 435.998 37.9859 470.984 81.143 470.984L842.931 470.984C788.967 467.453 771.678 450.512 766.215 392.841C771.678 335.172 788.966 318.231 842.926 314.699H953.811C995.85 314.699 1030.09 281.315 1031.47 239.612H1031.52L1031.52 238.739C1036.84 180.014 1053.98 162.844 1108.36 159.286L429.07 159.286L1269 159.286ZM191.586 314.698L345.848 314.698L345.895 314.698H191.586Z" fill="#5BD5AB"/>
<path d="M268.424 551.31L268.424 550.437C263.097 491.712 245.956 474.542 191.586 470.985L953.811 470.984C996.727 470.984 1031.52 505.775 1031.52 548.691C1031.52 591.607 996.727 626.397 953.811 626.397H346.13C304.091 626.397 269.848 593.013 268.467 551.31H268.424Z" fill="#5BD5AB"/>
</mask>
<g mask="url(#mask0_69_8810)">
<g filter="url(#filter4_i_69_8810)">
<path d="M17 545.321V446.068H58.336C59.2878 446.068 60.5569 446.114 62.1432 446.206C63.7749 446.252 65.2253 446.389 66.4944 446.619C72.3413 447.538 77.123 449.491 80.8396 452.478C84.6016 455.465 87.3664 459.233 89.134 463.782C90.9017 468.285 91.7855 473.316 91.7855 478.876C91.7855 484.436 90.879 489.491 89.066 494.04C87.2984 498.543 84.5336 502.288 80.7716 505.275C77.055 508.262 72.2959 510.214 66.4944 511.133C65.2253 511.317 63.7749 511.455 62.1432 511.547C60.5116 511.639 59.2425 511.685 58.336 511.685H35.4924V545.321H17ZM35.4924 494.178H57.5201C58.472 494.178 59.5144 494.132 60.6475 494.04C61.7807 493.948 62.8231 493.764 63.7749 493.489C66.2678 492.799 68.1941 491.651 69.5538 490.042C70.9135 488.388 71.8427 486.573 72.3413 484.597C72.8852 482.575 73.1571 480.668 73.1571 478.876C73.1571 477.084 72.8852 475.2 72.3413 473.224C71.8427 471.203 70.9135 469.388 69.5538 467.779C68.1941 466.125 66.2678 464.953 63.7749 464.264C62.8231 463.988 61.7807 463.805 60.6475 463.713C59.5144 463.621 58.472 463.575 57.5201 463.575H35.4924V494.178Z" fill="#5AD5AA"/>
<path d="M90.5373 545.321L120.451 446.068H148.054L177.968 545.321H158.932L132.281 457.785H135.817L109.574 545.321H90.5373ZM108.486 524.643V507.136H160.156V524.643H108.486Z" fill="#5AD5AA"/>
<path d="M223.259 547.388C216.325 547.388 210.228 546.354 204.971 544.287C199.758 542.219 195.362 539.577 191.781 536.36C188.201 533.098 185.413 529.697 183.419 526.159L199.056 515.131C200.144 517.429 201.685 519.703 203.679 521.955C205.673 524.206 208.325 526.067 211.633 527.538C214.942 529.008 219.089 529.743 224.075 529.743C228.789 529.743 232.573 529.054 235.429 527.676C238.33 526.297 240.415 524.528 241.684 522.368C242.998 520.209 243.655 517.934 243.655 515.545C243.655 512.374 242.726 509.939 240.868 508.239C239.055 506.538 236.698 505.367 233.797 504.723C230.896 504.034 227.837 503.644 224.619 503.552C221.492 503.46 219.225 503.391 217.82 503.345C216.461 503.299 215.531 503.276 215.033 503.276C214.58 503.276 214.149 503.276 213.741 503.276V485.631C214.33 485.631 215.191 485.631 216.325 485.631C217.503 485.631 218.681 485.631 219.86 485.631C221.084 485.585 222.081 485.539 222.851 485.493C227.61 485.263 231.576 484.207 234.749 482.323C237.967 480.439 239.576 477.498 239.576 473.5C239.576 469.824 238.148 466.906 235.293 464.747C232.483 462.587 228.698 461.507 223.939 461.507C219.452 461.507 215.441 462.495 211.905 464.471C208.415 466.401 205.855 468.537 204.223 470.881L191.577 457.096C194.977 453.512 199.532 450.433 205.243 447.86C210.954 445.287 217.367 444 224.483 444C228.789 444 233.004 444.574 237.129 445.723C241.253 446.826 244.97 448.549 248.278 450.893C251.587 453.19 254.216 456.154 256.165 459.784C258.159 463.414 259.156 467.756 259.156 472.811C259.156 477.084 258.408 481.128 256.913 484.942C255.417 488.71 253.264 491.88 250.454 494.453C254.533 496.291 257.683 498.957 259.904 502.449C262.125 505.941 263.235 510.306 263.235 515.545C263.235 522.116 261.423 527.79 257.797 532.569C254.216 537.302 249.389 540.955 243.315 543.528C237.287 546.102 230.602 547.388 223.259 547.388Z" fill="#5AD5AA"/>
<path d="M272.753 561.863V527.813C275.699 527.813 278.192 527.078 280.231 525.608C282.316 524.091 284.016 521.978 285.33 519.267C286.645 516.51 287.687 513.293 288.458 509.617C289.228 505.941 289.795 501.943 290.157 497.624C290.61 492.11 291.018 486.688 291.381 481.358C291.744 475.981 292.106 470.421 292.469 464.678C292.831 458.888 293.239 452.639 293.693 445.93L358.688 446.068V527.813H366.166V561.863H347.674V545.321H291.245V561.863H272.753ZM300.355 527.813H340.196V463.575L310.553 463.437C310.236 467.986 309.964 472.168 309.737 475.981C309.556 479.795 309.329 483.655 309.058 487.561C308.786 491.467 308.423 495.832 307.97 500.657C307.517 505.482 307.063 509.456 306.61 512.581C306.157 515.66 305.454 518.348 304.502 520.645C303.596 522.943 302.214 525.332 300.355 527.813Z" fill="#5AD5AA"/>
<path d="M381.101 545.321V446.068H422.437C423.389 446.068 424.658 446.114 426.244 446.206C427.876 446.252 429.327 446.389 430.596 446.619C436.443 447.538 441.224 449.491 444.941 452.478C448.703 455.465 451.468 459.233 453.235 463.782C455.003 468.285 455.887 473.316 455.887 478.876C455.887 484.436 454.98 489.491 453.167 494.04C451.4 498.543 448.635 502.288 444.873 505.275C441.156 508.262 436.397 510.214 430.596 511.133C429.327 511.317 427.876 511.455 426.244 511.547C424.613 511.639 423.344 511.685 422.437 511.685H399.594V545.321H381.101ZM399.594 494.178H421.621C422.573 494.178 423.616 494.132 424.749 494.04C425.882 493.948 426.924 493.764 427.876 493.489C430.369 492.799 432.295 491.651 433.655 490.042C435.015 488.388 435.944 486.573 436.443 484.597C436.986 482.575 437.258 480.668 437.258 478.876C437.258 477.084 436.986 475.2 436.443 473.224C435.944 471.203 435.015 469.388 433.655 467.779C432.295 466.125 430.369 464.953 427.876 464.264C426.924 463.988 425.882 463.805 424.749 463.713C423.616 463.621 422.573 463.575 421.621 463.575H399.594V494.178Z" fill="#5AD5AA"/>
<path d="M454.639 545.321L484.553 446.068H512.155L542.07 545.321H523.033L496.382 457.785H499.918L473.675 545.321H454.639ZM472.587 524.643V507.136H524.257V524.643H472.587Z" fill="#5AD5AA"/>
<path d="M546.097 545.321L580.77 495.005L548.68 446.068H570.572L598.311 490.456V446.068H616.803V490.456L644.542 446.068H666.433L634.344 495.005L669.017 545.321H646.309L616.803 501.484V545.321H598.311V501.484L568.804 545.321H546.097Z" fill="#5AD5AA"/>
<path d="M679.871 545.321V446.068H743.779V463.575H698.364V484.804H735.621V502.311H698.364V527.813H743.779V545.321H679.871Z" fill="#5AD5AA"/>
<path d="M760.075 545.321V446.068H778.567V486.872H822.351V446.068H840.843V545.321H822.351V504.379H778.567V545.321H760.075Z" fill="#5AD5AA"/>
<path d="M940.019 545.321H921.254V479.152L878.695 545.321H859.93V446.068H878.695V512.236L921.254 446.068H940.019V545.321Z" fill="#5AD5AA"/>
<path d="M958.989 545.321V446.068H1022.9V463.575H977.482V484.804H1014.74V502.311H977.482V527.813H1022.9V545.321H958.989Z" fill="#5AD5AA"/>
</g>
<g filter="url(#filter5_i_69_8810)">
<path d="M3 432.923V389.901C6.77387 389.901 9.96715 388.972 12.5798 387.114C15.2506 385.198 17.4278 382.527 19.1115 379.102C20.7953 375.618 22.1306 371.554 23.1176 366.909C24.1047 362.264 24.8304 357.213 25.2949 351.756C25.8755 344.788 26.398 337.937 26.8625 331.202C27.327 324.409 27.7914 317.384 28.2559 310.127C28.7204 302.811 29.2429 294.915 29.8235 286.439L113.081 286.613V389.901H122.661V432.923H98.9725V412.021H26.6883V432.923H3ZM38.3583 389.901H89.3927V308.733L51.4217 308.559C51.0153 314.307 50.6669 319.591 50.3766 324.409C50.1444 329.228 49.8541 334.105 49.5057 339.04C49.1574 343.976 48.6929 349.491 48.1123 355.587C47.5317 361.684 46.9511 366.706 46.3705 370.654C45.7899 374.544 44.89 377.94 43.6707 380.843C42.5095 383.746 40.7387 386.765 38.3583 389.901Z" fill="#5AD5AA"/>
<path d="M141.792 412.021V286.613H223.656V308.733H165.48V335.557H213.205V357.678H165.48V389.901H223.656V412.021H141.792Z" fill="#5AD5AA"/>
<path d="M244.53 412.021V286.613H347.992V412.021H324.304V308.733H268.218V412.021H244.53Z" fill="#5AD5AA"/>
<path d="M372.443 412.021V286.613H425.393C426.612 286.613 428.238 286.671 430.27 286.787C432.36 286.845 434.218 287.019 435.844 287.309C443.333 288.471 449.459 290.938 454.22 294.712C459.039 298.486 462.58 303.247 464.844 308.995C467.109 314.684 468.241 321.042 468.241 328.067C468.241 335.092 467.08 341.479 464.757 347.227C462.493 352.917 458.951 357.649 454.132 361.422C449.372 365.196 443.275 367.664 435.844 368.825C434.218 369.057 432.36 369.231 430.27 369.348C428.18 369.464 426.554 369.522 425.393 369.522H396.131V412.021H372.443ZM396.131 347.401H424.348C425.567 347.401 426.903 347.343 428.354 347.227C429.806 347.111 431.141 346.879 432.36 346.53C435.553 345.659 438.021 344.208 439.763 342.176C441.505 340.086 442.695 337.792 443.333 335.296C444.03 332.741 444.378 330.332 444.378 328.067C444.378 325.803 444.03 323.422 443.333 320.926C442.695 318.371 441.505 316.078 439.763 314.046C438.021 311.956 435.553 310.475 432.36 309.604C431.141 309.256 429.806 309.024 428.354 308.908C426.903 308.791 425.567 308.733 424.348 308.733H396.131V347.401Z" fill="#5AD5AA"/>
<path d="M485.727 412.021V286.613H567.591V308.733H509.415V335.557H557.14V357.678H509.415V389.901H567.591V412.021H485.727Z" fill="#5AD5AA"/>
<path d="M637.013 414.634C624.472 414.634 613.644 411.905 604.529 406.448C595.472 400.99 588.476 393.355 583.54 383.543C578.664 373.731 576.225 362.322 576.225 349.317C576.225 336.312 578.664 324.903 583.54 315.091C588.476 305.279 595.472 297.644 604.529 292.186C613.644 286.729 624.472 284 637.013 284C651.412 284 663.489 287.571 673.243 294.712C683.055 301.853 689.964 311.52 693.97 323.713L670.107 330.332C667.785 322.726 663.866 316.833 658.35 312.652C652.835 308.414 645.722 306.295 637.013 306.295C629.059 306.295 622.411 308.066 617.07 311.607C611.786 315.149 607.809 320.142 605.139 326.587C602.468 333.031 601.133 340.608 601.133 349.317C601.133 358.026 602.468 365.603 605.139 372.047C607.809 378.492 611.786 383.485 617.07 387.027C622.411 390.568 629.059 392.339 637.013 392.339C645.722 392.339 652.835 390.22 658.35 385.982C663.866 381.743 667.785 375.85 670.107 368.303L693.97 374.921C689.964 387.114 683.055 396.781 673.243 403.922C663.489 411.063 651.412 414.634 637.013 414.634Z" fill="#5AD5AA"/>
<path d="M766.967 414.634C754.426 414.634 743.598 411.905 734.483 406.448C725.425 400.99 718.429 393.355 713.494 383.543C708.617 373.731 706.179 362.322 706.179 349.317C706.179 336.312 708.617 324.903 713.494 315.091C718.429 305.279 725.425 297.644 734.483 292.186C743.598 286.729 754.426 284 766.967 284C781.366 284 793.442 287.571 803.196 294.712C813.008 301.853 819.917 311.52 823.923 323.713L800.061 330.332C797.739 322.726 793.82 316.833 788.304 312.652C782.788 308.414 775.676 306.295 766.967 306.295C759.013 306.295 752.365 308.066 747.024 311.607C741.74 315.149 737.763 320.142 735.092 326.587C732.422 333.031 731.086 340.608 731.086 349.317C731.086 358.026 732.422 365.603 735.092 372.047C737.763 378.492 741.74 383.485 747.024 387.027C752.365 390.568 759.013 392.339 766.967 392.339C775.676 392.339 782.788 390.22 788.304 385.982C793.82 381.743 797.739 375.85 800.061 368.303L823.923 374.921C819.917 387.114 813.008 396.781 803.196 403.922C793.442 411.063 781.366 414.634 766.967 414.634Z" fill="#5AD5AA"/>
<path d="M945.691 412.021H921.654V328.416L867.136 412.021H843.099V286.613H867.136V370.218L921.654 286.613H945.691V412.021Z" fill="#5AD5AA"/>
<path d="M1062.31 412.021H1038.62V369.522H1009.36L998.905 368.825C987.758 367.083 979.571 362.497 974.346 355.065C969.121 347.575 966.508 338.576 966.508 328.067C966.508 321.042 967.64 314.684 969.904 308.995C972.227 303.247 975.768 298.486 980.529 294.712C985.29 290.938 991.416 288.471 998.905 287.309C1000.59 287.019 1002.45 286.845 1004.48 286.787C1006.51 286.671 1008.14 286.613 1009.36 286.613H1062.31V412.021ZM991.59 412.021H964.766L991.938 356.284L1016.32 360.987L991.59 412.021ZM1038.62 347.401V308.733H1010.4C1009.18 308.733 1007.85 308.791 1006.39 308.908C1004.94 309.024 1003.61 309.256 1002.39 309.604C999.195 310.475 996.728 311.956 994.986 314.046C993.244 316.078 992.025 318.371 991.328 320.926C990.69 323.422 990.37 325.803 990.37 328.067C990.37 330.332 990.69 332.741 991.328 335.296C992.025 337.792 993.244 340.086 994.986 342.176C996.728 344.208 999.195 345.659 1002.39 346.53C1003.61 346.879 1004.94 347.111 1006.39 347.227C1007.85 347.343 1009.18 347.401 1010.4 347.401H1038.62Z" fill="#5AD5AA"/>
</g>
<g filter="url(#filter6_i_69_8810)">
<path d="M501.268 151.673C492.519 151.673 484.827 150.386 478.193 147.813C471.616 145.239 466.069 141.951 461.551 137.948C457.033 133.888 453.516 129.656 451 125.252L470.73 111.527C472.102 114.386 474.047 117.217 476.563 120.02C479.079 122.822 482.425 125.138 486.6 126.968C490.774 128.798 496.007 129.713 502.298 129.713C508.245 129.713 513.02 128.855 516.623 127.139C520.283 125.424 522.914 123.222 524.515 120.534C526.174 117.846 527.003 115.016 527.003 112.042C527.003 108.096 525.831 105.065 523.486 102.949C521.198 100.833 518.225 99.3746 514.565 98.574C510.904 97.7162 507.044 97.2301 502.984 97.1157C499.038 97.0013 496.179 96.9155 494.406 96.8584C492.69 96.8012 491.518 96.7726 490.889 96.7726C490.317 96.7726 489.773 96.7726 489.259 96.7726V74.8124C490.002 74.8124 491.089 74.8124 492.519 74.8124C494.005 74.8124 495.492 74.8124 496.979 74.8124C498.523 74.7552 499.781 74.698 500.754 74.6408C506.758 74.3549 511.762 73.0395 515.765 70.6948C519.826 68.3501 521.856 64.6901 521.856 59.7147C521.856 55.1397 520.055 51.5082 516.452 48.8204C512.906 46.1326 508.131 44.7886 502.126 44.7886C496.464 44.7886 491.403 46.0182 486.943 48.4773C482.539 50.8792 479.308 53.5384 477.249 56.455L461.294 39.2986C465.583 34.8379 471.33 31.0063 478.536 27.8038C485.742 24.6013 493.834 23 502.812 23C508.245 23 513.564 23.7148 518.768 25.1445C523.972 26.5171 528.661 28.6616 532.836 31.5782C537.011 34.4376 540.328 38.1262 542.787 42.6441C545.303 47.1619 546.561 52.5662 546.561 58.8569C546.561 64.1754 545.618 69.2079 543.73 73.9545C541.843 78.644 539.127 82.5899 535.581 85.7925C540.728 88.08 544.703 91.3969 547.505 95.7432C550.307 100.089 551.708 105.522 551.708 112.042C551.708 120.22 549.421 127.282 544.846 133.23C540.328 139.12 534.237 143.667 526.574 146.869C518.968 150.072 510.533 151.673 501.268 151.673Z" fill="#5AD5AA"/>
<path d="M562.001 149.1L599.745 25.5735H634.572L672.316 149.1H648.297L614.671 40.1564H619.132L586.02 149.1H562.001ZM584.647 123.365V101.576H649.841V123.365H584.647Z" fill="#5AD5AA"/>
<path d="M687.691 149.1V25.5735H737.102C745.909 25.5735 753.029 27.3463 758.462 30.892C763.895 34.3804 767.869 38.7839 770.385 44.1024C772.902 49.4209 774.16 54.7966 774.16 60.2294C774.16 67.1492 772.587 72.8966 769.442 77.4716C766.354 82.0466 762.093 85.1062 756.66 86.6503V82.3612C764.381 83.9625 770.157 87.5367 773.988 93.0839C777.877 98.6312 779.821 104.836 779.821 111.699C779.821 119.076 778.449 125.567 775.704 131.171C773.016 136.776 768.898 141.179 763.351 144.382C757.804 147.527 750.827 149.1 742.42 149.1H687.691ZM711.367 127.139H740.019C743.164 127.139 745.966 126.482 748.425 125.166C750.884 123.794 752.8 121.907 754.173 119.505C755.602 117.046 756.317 114.158 756.317 110.841C756.317 107.924 755.717 105.322 754.516 103.035C753.315 100.747 751.485 98.9457 749.026 97.6304C746.624 96.2579 743.621 95.5716 740.019 95.5716H711.367V127.139ZM711.367 73.783H736.759C739.389 73.783 741.734 73.3255 743.793 72.4105C745.852 71.4955 747.482 70.0943 748.683 68.2071C749.883 66.2627 750.484 63.7751 750.484 60.7441C750.484 56.9697 749.312 53.7958 746.967 51.2223C744.622 48.6488 741.219 47.3621 736.759 47.3621H711.367V73.783Z" fill="#5AD5AA"/>
<path d="M897.981 149.1H874.305V66.7489L820.605 149.1H796.93V25.5735H820.605V107.924L874.305 25.5735H897.981V149.1Z" fill="#5AD5AA"/>
<path d="M974.93 151.673C962.577 151.673 951.912 148.985 942.933 143.61C934.012 138.234 927.121 130.714 922.26 121.049C917.456 111.384 915.054 100.147 915.054 87.3365C915.054 74.5264 917.456 63.289 922.26 53.6242C927.121 43.9594 934.012 36.4392 942.933 31.0635C951.912 25.6878 962.577 23 974.93 23C989.113 23 1001.01 26.5171 1010.62 33.5512C1020.28 40.5853 1027.09 50.1071 1031.03 62.1166L1007.53 68.6361C1005.24 61.1444 1001.38 55.3398 995.947 51.2223C990.514 47.0476 983.508 44.9602 974.93 44.9602C967.095 44.9602 960.547 46.7044 955.286 50.1929C950.082 53.6814 946.164 58.5996 943.534 64.9474C940.903 71.2953 939.588 78.7583 939.588 87.3365C939.588 95.9147 940.903 103.378 943.534 109.726C946.164 116.074 950.082 120.992 955.286 124.48C960.547 127.969 967.095 129.713 974.93 129.713C983.508 129.713 990.514 127.626 995.947 123.451C1001.38 119.276 1005.24 113.471 1007.53 106.037L1031.03 112.556C1027.09 124.566 1020.28 134.088 1010.62 141.122C1001.01 148.156 989.113 151.673 974.93 151.673Z" fill="#5AD5AA"/>
<path d="M1078.57 149.1V47.3621H1039.63V25.5735H1140.85V47.3621H1101.9V149.1H1078.57Z" fill="#5AD5AA"/>
<path d="M1154.46 149.1V25.5735H1177.8V67.4351H1206.62C1207.76 67.4351 1209.36 67.4923 1211.42 67.6067C1213.48 67.6639 1215.31 67.8354 1216.91 68.1214C1224.23 69.2651 1230.24 71.6956 1234.93 75.4128C1239.67 79.1301 1243.16 83.8195 1245.39 89.4811C1247.68 95.0855 1248.82 101.348 1248.82 108.267C1248.82 115.187 1247.71 121.478 1245.48 127.139C1243.25 132.744 1239.76 137.405 1235.01 141.122C1230.32 144.839 1224.29 147.27 1216.91 148.413C1215.31 148.642 1213.48 148.814 1211.42 148.928C1209.42 149.042 1207.82 149.1 1206.62 149.1H1154.46ZM1177.8 127.311H1205.59C1206.79 127.311 1208.1 127.254 1209.53 127.139C1210.96 127.025 1212.28 126.796 1213.48 126.453C1216.63 125.595 1219.06 124.166 1220.77 122.164C1222.49 120.105 1223.66 117.846 1224.29 115.387C1224.98 112.871 1225.32 110.498 1225.32 108.267C1225.32 106.037 1224.98 103.692 1224.29 101.233C1223.66 98.717 1222.49 96.458 1220.77 94.4565C1219.06 92.3977 1216.63 90.9394 1213.48 90.0816C1212.28 89.7384 1210.96 89.5097 1209.53 89.3953C1208.1 89.2809 1206.79 89.2238 1205.59 89.2238H1177.8V127.311Z" fill="#5AD5AA"/>
</g>
<g filter="url(#filter7_i_69_8810)">
<path d="M260 270.483V165.194H304.455C305.479 165.194 306.844 165.242 308.55 165.34C310.305 165.388 311.865 165.535 313.229 165.778C319.518 166.753 324.66 168.825 328.657 171.993C332.703 175.162 335.677 179.159 337.578 183.985C339.479 188.762 340.429 194.099 340.429 199.997C340.429 205.896 339.454 211.257 337.504 216.083C335.603 220.86 332.63 224.833 328.584 228.001C324.587 231.17 319.469 233.241 313.229 234.216C311.865 234.411 310.305 234.558 308.55 234.655C306.795 234.753 305.43 234.801 304.455 234.801H279.888V270.483H260ZM279.888 216.229H303.578C304.602 216.229 305.723 216.181 306.941 216.083C308.16 215.986 309.281 215.791 310.305 215.498C312.986 214.767 315.057 213.548 316.52 211.842C317.982 210.088 318.981 208.162 319.518 206.066C320.103 203.921 320.395 201.898 320.395 199.997C320.395 198.096 320.103 196.098 319.518 194.002C318.981 191.857 317.982 189.932 316.52 188.226C315.057 186.471 312.986 185.228 310.305 184.497C309.281 184.204 308.16 184.009 306.941 183.912C305.723 183.814 304.602 183.765 303.578 183.765H279.888V216.229Z" fill="#5AD5AA"/>
<path d="M355.11 270.483V165.194H423.84V183.765H374.998V206.286H415.066V224.857H374.998V251.911H423.84V270.483H355.11Z" fill="#5AD5AA"/>
<path d="M441.365 270.483V165.194H483.481C490.988 165.194 497.057 166.705 501.687 169.727C506.318 172.7 509.706 176.454 511.851 180.987C513.995 185.52 515.068 190.102 515.068 194.733C515.068 200.631 513.727 205.53 511.046 209.43C508.414 213.329 504.783 215.937 500.152 217.253V213.597C506.732 214.962 511.656 218.009 514.922 222.737C518.236 227.465 519.894 232.754 519.894 238.603C519.894 244.891 518.724 250.424 516.384 255.201C514.093 259.978 510.583 263.731 505.855 266.461C501.127 269.142 495.18 270.483 488.014 270.483H441.365ZM461.546 251.765H485.967C488.648 251.765 491.037 251.204 493.133 250.083C495.229 248.913 496.862 247.304 498.031 245.257C499.25 243.161 499.859 240.699 499.859 237.872C499.859 235.386 499.348 233.168 498.324 231.219C497.3 229.269 495.74 227.733 493.644 226.612C491.597 225.442 489.038 224.857 485.967 224.857H461.546V251.765ZM461.546 206.286H483.189C485.431 206.286 487.429 205.896 489.184 205.116C490.939 204.336 492.328 203.141 493.352 201.533C494.376 199.876 494.887 197.755 494.887 195.172C494.887 191.954 493.888 189.249 491.89 187.056C489.891 184.862 486.991 183.765 483.189 183.765H461.546V206.286Z" fill="#5AD5AA"/>
<path d="M534.476 270.483V165.194H554.364V208.479H601.451V165.194H621.339V270.483H601.451V227.051H554.364V270.483H534.476Z" fill="#5AD5AA"/>
<path d="M687.054 272.676C676.525 272.676 667.434 270.385 659.781 265.803C652.177 261.221 646.303 254.811 642.16 246.573C638.065 238.335 636.018 228.757 636.018 217.838C636.018 206.919 638.065 197.341 642.16 189.103C646.303 180.865 652.177 174.455 659.781 169.873C667.434 165.291 676.525 163 687.054 163C697.583 163 706.649 165.291 714.253 169.873C721.906 174.455 727.78 180.865 731.875 189.103C736.018 197.341 738.09 206.919 738.09 217.838C738.09 228.757 736.018 238.335 731.875 246.573C727.78 254.811 721.906 261.221 714.253 265.803C706.649 270.385 697.583 272.676 687.054 272.676ZM687.054 253.958C693.732 254.056 699.289 252.618 703.724 249.644C708.16 246.671 711.475 242.454 713.668 236.995C715.911 231.535 717.032 225.15 717.032 217.838C717.032 210.526 715.911 204.189 713.668 198.828C711.475 193.466 708.16 189.298 703.724 186.324C699.289 183.351 693.732 181.816 687.054 181.718C680.376 181.621 674.819 183.059 670.383 186.032C665.947 189.005 662.608 193.222 660.366 198.681C658.172 204.141 657.075 210.526 657.075 217.838C657.075 225.15 658.172 231.487 660.366 236.849C662.608 242.211 665.947 246.378 670.383 249.352C674.819 252.325 680.376 253.861 687.054 253.958Z" fill="#5AD5AA"/>
<path d="M797.872 272.676C787.343 272.676 778.252 270.385 770.599 265.803C762.995 261.221 757.121 254.811 752.978 246.573C748.883 238.335 746.836 228.757 746.836 217.838C746.836 206.919 748.883 197.341 752.978 189.103C757.121 180.865 762.995 174.455 770.599 169.873C778.252 165.291 787.343 163 797.872 163C809.961 163 820.1 165.998 828.289 171.993C836.527 177.989 842.328 186.105 845.691 196.342L825.657 201.898C823.707 195.513 820.417 190.565 815.786 187.056C811.155 183.497 805.184 181.718 797.872 181.718C791.194 181.718 785.613 183.205 781.128 186.178C776.693 189.152 773.353 193.344 771.111 198.754C768.869 204.165 767.748 210.526 767.748 217.838C767.748 225.15 768.869 231.511 771.111 236.922C773.353 242.332 776.693 246.524 781.128 249.498C785.613 252.471 791.194 253.958 797.872 253.958C805.184 253.958 811.155 252.179 815.786 248.62C820.417 245.062 823.707 240.114 825.657 233.778L845.691 239.335C842.328 249.571 836.527 257.687 828.289 263.683C820.1 269.678 809.961 272.676 797.872 272.676Z" fill="#5AD5AA"/>
<path d="M886.212 270.483V183.765H853.016V165.194H939.295V183.765H906.1V270.483H886.212Z" fill="#5AD5AA"/>
<path d="M950.899 270.483V165.194H970.787V200.875H995.354C996.329 200.875 997.694 200.924 999.449 201.021C1001.2 201.07 1002.76 201.216 1004.13 201.46C1010.37 202.435 1015.49 204.506 1019.48 207.675C1023.53 210.843 1026.5 214.84 1028.4 219.666C1030.35 224.443 1031.33 229.781 1031.33 235.679C1031.33 241.577 1030.38 246.939 1028.48 251.765C1026.58 256.542 1023.6 260.514 1019.56 263.683C1015.56 266.851 1010.42 268.923 1004.13 269.898C1002.76 270.093 1001.2 270.239 999.449 270.336C997.743 270.434 996.378 270.483 995.354 270.483H950.899ZM970.787 251.911H994.477C995.5 251.911 996.622 251.862 997.84 251.765C999.059 251.667 1000.18 251.472 1001.2 251.18C1003.88 250.448 1005.96 249.23 1007.42 247.524C1008.88 245.769 1009.88 243.843 1010.42 241.747C1011 239.603 1011.29 237.58 1011.29 235.679C1011.29 233.778 1011 231.779 1010.42 229.683C1009.88 227.538 1008.88 225.613 1007.42 223.907C1005.96 222.152 1003.88 220.909 1001.2 220.178C1000.18 219.885 999.059 219.69 997.84 219.593C996.622 219.495 995.5 219.447 994.477 219.447H970.787V251.911Z" fill="#5AD5AA"/>
</g>
<g style="mix-blend-mode:hue" filter="url(#filter8_f_69_8810)">
<circle cx="488.82" cy="471.82" r="524.82" fill="url(#paint0_radial_69_8810)"/>
<circle cx="488.82" cy="471.82" r="524.82" fill="url(#paint1_radial_69_8810)"/>
</g>
</g>
<g filter="url(#filter9_i_69_8810)">
<mask id="path-11-outside-4_69_8810" maskUnits="userSpaceOnUse" x="16" y="443" width="1008" height="120" fill="black">
<rect fill="white" x="16" y="443" width="1008" height="120"/>
<path d="M17 545.321V446.068H58.336C59.2878 446.068 60.5569 446.114 62.1432 446.206C63.7749 446.252 65.2253 446.389 66.4944 446.619C72.3413 447.538 77.123 449.491 80.8396 452.478C84.6016 455.465 87.3664 459.233 89.134 463.782C90.9017 468.285 91.7855 473.316 91.7855 478.876C91.7855 484.436 90.879 489.491 89.066 494.04C87.2984 498.543 84.5336 502.288 80.7716 505.275C77.055 508.262 72.2959 510.214 66.4944 511.133C65.2253 511.317 63.7749 511.455 62.1432 511.547C60.5116 511.639 59.2425 511.685 58.336 511.685H35.4924V545.321H17ZM35.4924 494.178H57.5201C58.472 494.178 59.5144 494.132 60.6475 494.04C61.7807 493.948 62.8231 493.764 63.7749 493.489C66.2678 492.799 68.1941 491.651 69.5538 490.042C70.9135 488.388 71.8427 486.573 72.3413 484.597C72.8852 482.575 73.1571 480.668 73.1571 478.876C73.1571 477.084 72.8852 475.2 72.3413 473.224C71.8427 471.203 70.9135 469.388 69.5538 467.779C68.1941 466.125 66.2678 464.953 63.7749 464.264C62.8231 463.988 61.7807 463.805 60.6475 463.713C59.5144 463.621 58.472 463.575 57.5201 463.575H35.4924V494.178Z"/>
<path d="M90.5373 545.321L120.451 446.068H148.054L177.968 545.321H158.932L132.281 457.785H135.817L109.574 545.321H90.5373ZM108.486 524.643V507.136H160.156V524.643H108.486Z"/>
<path d="M223.259 547.388C216.325 547.388 210.228 546.354 204.971 544.287C199.758 542.219 195.362 539.577 191.781 536.36C188.201 533.098 185.413 529.697 183.419 526.159L199.056 515.131C200.144 517.429 201.685 519.703 203.679 521.955C205.673 524.206 208.325 526.067 211.633 527.538C214.942 529.008 219.089 529.743 224.075 529.743C228.789 529.743 232.573 529.054 235.429 527.676C238.33 526.297 240.415 524.528 241.684 522.368C242.998 520.209 243.655 517.934 243.655 515.545C243.655 512.374 242.726 509.939 240.868 508.239C239.055 506.538 236.698 505.367 233.797 504.723C230.896 504.034 227.837 503.644 224.619 503.552C221.492 503.46 219.225 503.391 217.82 503.345C216.461 503.299 215.531 503.276 215.033 503.276C214.58 503.276 214.149 503.276 213.741 503.276V485.631C214.33 485.631 215.191 485.631 216.325 485.631C217.503 485.631 218.681 485.631 219.86 485.631C221.084 485.585 222.081 485.539 222.851 485.493C227.61 485.263 231.576 484.207 234.749 482.323C237.967 480.439 239.576 477.498 239.576 473.5C239.576 469.824 238.148 466.906 235.293 464.747C232.483 462.587 228.698 461.507 223.939 461.507C219.452 461.507 215.441 462.495 211.905 464.471C208.415 466.401 205.855 468.537 204.223 470.881L191.577 457.096C194.977 453.512 199.532 450.433 205.243 447.86C210.954 445.287 217.367 444 224.483 444C228.789 444 233.004 444.574 237.129 445.723C241.253 446.826 244.97 448.549 248.278 450.893C251.587 453.19 254.216 456.154 256.165 459.784C258.159 463.414 259.156 467.756 259.156 472.811C259.156 477.084 258.408 481.128 256.913 484.942C255.417 488.71 253.264 491.88 250.454 494.453C254.533 496.291 257.683 498.957 259.904 502.449C262.125 505.941 263.235 510.306 263.235 515.545C263.235 522.116 261.423 527.79 257.797 532.569C254.216 537.302 249.389 540.955 243.315 543.528C237.287 546.102 230.602 547.388 223.259 547.388Z"/>
<path d="M272.753 561.863V527.813C275.699 527.813 278.192 527.078 280.231 525.608C282.316 524.091 284.016 521.978 285.33 519.267C286.645 516.51 287.687 513.293 288.458 509.617C289.228 505.941 289.795 501.943 290.157 497.624C290.61 492.11 291.018 486.688 291.381 481.358C291.744 475.981 292.106 470.421 292.469 464.678C292.831 458.888 293.239 452.639 293.693 445.93L358.688 446.068V527.813H366.166V561.863H347.674V545.321H291.245V561.863H272.753ZM300.355 527.813H340.196V463.575L310.553 463.437C310.236 467.986 309.964 472.168 309.737 475.981C309.556 479.795 309.329 483.655 309.058 487.561C308.786 491.467 308.423 495.832 307.97 500.657C307.517 505.482 307.063 509.456 306.61 512.581C306.157 515.66 305.454 518.348 304.502 520.645C303.596 522.943 302.214 525.332 300.355 527.813Z"/>
<path d="M381.101 545.321V446.068H422.437C423.389 446.068 424.658 446.114 426.244 446.206C427.876 446.252 429.327 446.389 430.596 446.619C436.443 447.538 441.224 449.491 444.941 452.478C448.703 455.465 451.468 459.233 453.235 463.782C455.003 468.285 455.887 473.316 455.887 478.876C455.887 484.436 454.98 489.491 453.167 494.04C451.4 498.543 448.635 502.288 444.873 505.275C441.156 508.262 436.397 510.214 430.596 511.133C429.327 511.317 427.876 511.455 426.244 511.547C424.613 511.639 423.344 511.685 422.437 511.685H399.594V545.321H381.101ZM399.594 494.178H421.621C422.573 494.178 423.616 494.132 424.749 494.04C425.882 493.948 426.924 493.764 427.876 493.489C430.369 492.799 432.295 491.651 433.655 490.042C435.015 488.388 435.944 486.573 436.443 484.597C436.986 482.575 437.258 480.668 437.258 478.876C437.258 477.084 436.986 475.2 436.443 473.224C435.944 471.203 435.015 469.388 433.655 467.779C432.295 466.125 430.369 464.953 427.876 464.264C426.924 463.988 425.882 463.805 424.749 463.713C423.616 463.621 422.573 463.575 421.621 463.575H399.594V494.178Z"/>
<path d="M454.639 545.321L484.553 446.068H512.155L542.07 545.321H523.033L496.382 457.785H499.918L473.675 545.321H454.639ZM472.587 524.643V507.136H524.257V524.643H472.587Z"/>
<path d="M546.097 545.321L580.77 495.005L548.68 446.068H570.572L598.311 490.456V446.068H616.803V490.456L644.542 446.068H666.433L634.344 495.005L669.017 545.321H646.309L616.803 501.484V545.321H598.311V501.484L568.804 545.321H546.097Z"/>
<path d="M679.871 545.321V446.068H743.779V463.575H698.364V484.804H735.621V502.311H698.364V527.813H743.779V545.321H679.871Z"/>
<path d="M760.075 545.321V446.068H778.567V486.872H822.351V446.068H840.843V545.321H822.351V504.379H778.567V545.321H760.075Z"/>
<path d="M940.019 545.321H921.254V479.152L878.695 545.321H859.93V446.068H878.695V512.236L921.254 446.068H940.019V545.321Z"/>
<path d="M958.989 545.321V446.068H1022.9V463.575H977.482V484.804H1014.74V502.311H977.482V527.813H1022.9V545.321H958.989Z"/>
</mask>
<path d="M17 545.321V446.068H58.336C59.2878 446.068 60.5569 446.114 62.1432 446.206C63.7749 446.252 65.2253 446.389 66.4944 446.619C72.3413 447.538 77.123 449.491 80.8396 452.478C84.6016 455.465 87.3664 459.233 89.134 463.782C90.9017 468.285 91.7855 473.316 91.7855 478.876C91.7855 484.436 90.879 489.491 89.066 494.04C87.2984 498.543 84.5336 502.288 80.7716 505.275C77.055 508.262 72.2959 510.214 66.4944 511.133C65.2253 511.317 63.7749 511.455 62.1432 511.547C60.5116 511.639 59.2425 511.685 58.336 511.685H35.4924V545.321H17ZM35.4924 494.178H57.5201C58.472 494.178 59.5144 494.132 60.6475 494.04C61.7807 493.948 62.8231 493.764 63.7749 493.489C66.2678 492.799 68.1941 491.651 69.5538 490.042C70.9135 488.388 71.8427 486.573 72.3413 484.597C72.8852 482.575 73.1571 480.668 73.1571 478.876C73.1571 477.084 72.8852 475.2 72.3413 473.224C71.8427 471.203 70.9135 469.388 69.5538 467.779C68.1941 466.125 66.2678 464.953 63.7749 464.264C62.8231 463.988 61.7807 463.805 60.6475 463.713C59.5144 463.621 58.472 463.575 57.5201 463.575H35.4924V494.178Z" stroke="#816EE0" stroke-width="2" mask="url(#path-11-outside-4_69_8810)"/>
<path d="M90.5373 545.321L120.451 446.068H148.054L177.968 545.321H158.932L132.281 457.785H135.817L109.574 545.321H90.5373ZM108.486 524.643V507.136H160.156V524.643H108.486Z" stroke="#816EE0" stroke-width="2" mask="url(#path-11-outside-4_69_8810)"/>
<path d="M223.259 547.388C216.325 547.388 210.228 546.354 204.971 544.287C199.758 542.219 195.362 539.577 191.781 536.36C188.201 533.098 185.413 529.697 183.419 526.159L199.056 515.131C200.144 517.429 201.685 519.703 203.679 521.955C205.673 524.206 208.325 526.067 211.633 527.538C214.942 529.008 219.089 529.743 224.075 529.743C228.789 529.743 232.573 529.054 235.429 527.676C238.33 526.297 240.415 524.528 241.684 522.368C242.998 520.209 243.655 517.934 243.655 515.545C243.655 512.374 242.726 509.939 240.868 508.239C239.055 506.538 236.698 505.367 233.797 504.723C230.896 504.034 227.837 503.644 224.619 503.552C221.492 503.46 219.225 503.391 217.82 503.345C216.461 503.299 215.531 503.276 215.033 503.276C214.58 503.276 214.149 503.276 213.741 503.276V485.631C214.33 485.631 215.191 485.631 216.325 485.631C217.503 485.631 218.681 485.631 219.86 485.631C221.084 485.585 222.081 485.539 222.851 485.493C227.61 485.263 231.576 484.207 234.749 482.323C237.967 480.439 239.576 477.498 239.576 473.5C239.576 469.824 238.148 466.906 235.293 464.747C232.483 462.587 228.698 461.507 223.939 461.507C219.452 461.507 215.441 462.495 211.905 464.471C208.415 466.401 205.855 468.537 204.223 470.881L191.577 457.096C194.977 453.512 199.532 450.433 205.243 447.86C210.954 445.287 217.367 444 224.483 444C228.789 444 233.004 444.574 237.129 445.723C241.253 446.826 244.97 448.549 248.278 450.893C251.587 453.19 254.216 456.154 256.165 459.784C258.159 463.414 259.156 467.756 259.156 472.811C259.156 477.084 258.408 481.128 256.913 484.942C255.417 488.71 253.264 491.88 250.454 494.453C254.533 496.291 257.683 498.957 259.904 502.449C262.125 505.941 263.235 510.306 263.235 515.545C263.235 522.116 261.423 527.79 257.797 532.569C254.216 537.302 249.389 540.955 243.315 543.528C237.287 546.102 230.602 547.388 223.259 547.388Z" stroke="#816EE0" stroke-width="2" mask="url(#path-11-outside-4_69_8810)"/>
<path d="M272.753 561.863V527.813C275.699 527.813 278.192 527.078 280.231 525.608C282.316 524.091 284.016 521.978 285.33 519.267C286.645 516.51 287.687 513.293 288.458 509.617C289.228 505.941 289.795 501.943 290.157 497.624C290.61 492.11 291.018 486.688 291.381 481.358C291.744 475.981 292.106 470.421 292.469 464.678C292.831 458.888 293.239 452.639 293.693 445.93L358.688 446.068V527.813H366.166V561.863H347.674V545.321H291.245V561.863H272.753ZM300.355 527.813H340.196V463.575L310.553 463.437C310.236 467.986 309.964 472.168 309.737 475.981C309.556 479.795 309.329 483.655 309.058 487.561C308.786 491.467 308.423 495.832 307.97 500.657C307.517 505.482 307.063 509.456 306.61 512.581C306.157 515.66 305.454 518.348 304.502 520.645C303.596 522.943 302.214 525.332 300.355 527.813Z" stroke="#816EE0" stroke-width="2" mask="url(#path-11-outside-4_69_8810)"/>
<path d="M381.101 545.321V446.068H422.437C423.389 446.068 424.658 446.114 426.244 446.206C427.876 446.252 429.327 446.389 430.596 446.619C436.443 447.538 441.224 449.491 444.941 452.478C448.703 455.465 451.468 459.233 453.235 463.782C455.003 468.285 455.887 473.316 455.887 478.876C455.887 484.436 454.98 489.491 453.167 494.04C451.4 498.543 448.635 502.288 444.873 505.275C441.156 508.262 436.397 510.214 430.596 511.133C429.327 511.317 427.876 511.455 426.244 511.547C424.613 511.639 423.344 511.685 422.437 511.685H399.594V545.321H381.101ZM399.594 494.178H421.621C422.573 494.178 423.616 494.132 424.749 494.04C425.882 493.948 426.924 493.764 427.876 493.489C430.369 492.799 432.295 491.651 433.655 490.042C435.015 488.388 435.944 486.573 436.443 484.597C436.986 482.575 437.258 480.668 437.258 478.876C437.258 477.084 436.986 475.2 436.443 473.224C435.944 471.203 435.015 469.388 433.655 467.779C432.295 466.125 430.369 464.953 427.876 464.264C426.924 463.988 425.882 463.805 424.749 463.713C423.616 463.621 422.573 463.575 421.621 463.575H399.594V494.178Z" stroke="#816EE0" stroke-width="2" mask="url(#path-11-outside-4_69_8810)"/>
<path d="M454.639 545.321L484.553 446.068H512.155L542.07 545.321H523.033L496.382 457.785H499.918L473.675 545.321H454.639ZM472.587 524.643V507.136H524.257V524.643H472.587Z" stroke="#816EE0" stroke-width="2" mask="url(#path-11-outside-4_69_8810)"/>
<path d="M546.097 545.321L580.77 495.005L548.68 446.068H570.572L598.311 490.456V446.068H616.803V490.456L644.542 446.068H666.433L634.344 495.005L669.017 545.321H646.309L616.803 501.484V545.321H598.311V501.484L568.804 545.321H546.097Z" stroke="#816EE0" stroke-width="2" mask="url(#path-11-outside-4_69_8810)"/>
<path d="M679.871 545.321V446.068H743.779V463.575H698.364V484.804H735.621V502.311H698.364V527.813H743.779V545.321H679.871Z" stroke="#816EE0" stroke-width="2" mask="url(#path-11-outside-4_69_8810)"/>
<path d="M760.075 545.321V446.068H778.567V486.872H822.351V446.068H840.843V545.321H822.351V504.379H778.567V545.321H760.075Z" stroke="#816EE0" stroke-width="2" mask="url(#path-11-outside-4_69_8810)"/>
<path d="M940.019 545.321H921.254V479.152L878.695 545.321H859.93V446.068H878.695V512.236L921.254 446.068H940.019V545.321Z" stroke="#816EE0" stroke-width="2" mask="url(#path-11-outside-4_69_8810)"/>
<path d="M958.989 545.321V446.068H1022.9V463.575H977.482V484.804H1014.74V502.311H977.482V527.813H1022.9V545.321H958.989Z" stroke="#816EE0" stroke-width="2" mask="url(#path-11-outside-4_69_8810)"/>
</g>
<defs>
<filter id="filter0_ddiiii_69_8810" x="-8" y="-8" width="1288" height="645.397" filterUnits="userSpaceOnUse" color-interpolation-filters="sRGB">
<feFlood flood-opacity="0" result="BackgroundImageFix"/>
<feColorMatrix in="SourceAlpha" type="matrix" values="0 0 0 0 0 0 0 0 0 0 0 0 0 0 0 0 0 0 127 0" result="hardAlpha"/>
<feOffset dx="-1" dy="-1"/>
<feGaussianBlur stdDeviation="1"/>
<feColorMatrix type="matrix" values="0 0 0 0 0.321569 0 0 0 0 0.752941 0 0 0 0 0.603922 0 0 0 0.5 0"/>
<feBlend mode="normal" in2="BackgroundImageFix" result="effect1_dropShadow_69_8810"/>
<feColorMatrix in="SourceAlpha" type="matrix" values="0 0 0 0 0 0 0 0 0 0 0 0 0 0 0 0 0 0 127 0" result="hardAlpha"/>
<feOffset dx="1" dy="1"/>
<feGaussianBlur stdDeviation="1"/>
<feColorMatrix type="matrix" values="0 0 0 0 0.392157 0 0 0 0 0.917647 0 0 0 0 0.737255 0 0 0 0.3 0"/>
<feBlend mode="normal" in2="effect1_dropShadow_69_8810" result="effect2_dropShadow_69_8810"/>
<feBlend mode="normal" in="SourceGraphic" in2="effect2_dropShadow_69_8810" result="shape"/>
<feColorMatrix in="SourceAlpha" type="matrix" values="0 0 0 0 0 0 0 0 0 0 0 0 0 0 0 0 0 0 127 0" result="hardAlpha"/>
<feOffset dx="11" dy="11"/>
<feGaussianBlur stdDeviation="14"/>
<feComposite in2="hardAlpha" operator="arithmetic" k2="-1" k3="1"/>
<feColorMatrix type="matrix" values="0 0 0 0 0.321569 0 0 0 0 0.752941 0 0 0 0 0.603922 0 0 0 0.9 0"/>
<feBlend mode="normal" in2="shape" result="effect3_innerShadow_69_8810"/>
<feColorMatrix in="SourceAlpha" type="matrix" values="0 0 0 0 0 0 0 0 0 0 0 0 0 0 0 0 0 0 127 0" result="hardAlpha"/>
<feOffset dx="-11" dy="-11"/>
<feGaussianBlur stdDeviation="11"/>
<feComposite in2="hardAlpha" operator="arithmetic" k2="-1" k3="1"/>
<feColorMatrix type="matrix" values="0 0 0 0 0.392157 0 0 0 0 0.917647 0 0 0 0 0.737255 0 0 0 0.9 0"/>
<feBlend mode="normal" in2="effect3_innerShadow_69_8810" result="effect4_innerShadow_69_8810"/>
<feColorMatrix in="SourceAlpha" type="matrix" values="0 0 0 0 0 0 0 0 0 0 0 0 0 0 0 0 0 0 127 0" result="hardAlpha"/>
<feOffset dx="11" dy="-11"/>
<feGaussianBlur stdDeviation="11"/>
<feComposite in2="hardAlpha" operator="arithmetic" k2="-1" k3="1"/>
<feColorMatrix type="matrix" values="0 0 0 0 0.321569 0 0 0 0 0.752941 0 0 0 0 0.603922 0 0 0 0.2 0"/>
<feBlend mode="normal" in2="effect4_innerShadow_69_8810" result="effect5_innerShadow_69_8810"/>
<feColorMatrix in="SourceAlpha" type="matrix" values="0 0 0 0 0 0 0 0 0 0 0 0 0 0 0 0 0 0 127 0" result="hardAlpha"/>
<feOffset dx="-11" dy="11"/>
<feGaussianBlur stdDeviation="11"/>
<feComposite in2="hardAlpha" operator="arithmetic" k2="-1" k3="1"/>
<feColorMatrix type="matrix" values="0 0 0 0 0.321569 0 0 0 0 0.752941 0 0 0 0 0.603922 0 0 0 0.2 0"/>
<feBlend mode="normal" in2="effect5_innerShadow_69_8810" result="effect6_innerShadow_69_8810"/>
</filter>
<filter id="filter1_i_69_8810" x="2" y="284" width="1061.31" height="156.923" filterUnits="userSpaceOnUse" color-interpolation-filters="sRGB">
<feFlood flood-opacity="0" result="BackgroundImageFix"/>
<feBlend mode="normal" in="SourceGraphic" in2="BackgroundImageFix" result="shape"/>
<feColorMatrix in="SourceAlpha" type="matrix" values="0 0 0 0 0 0 0 0 0 0 0 0 0 0 0 0 0 0 127 0" result="hardAlpha"/>
<feOffset dy="6"/>
<feGaussianBlur stdDeviation="10"/>
<feComposite in2="hardAlpha" operator="arithmetic" k2="-1" k3="1"/>
<feColorMatrix type="matrix" values="0 0 0 0 0.244375 0 0 0 0 0.6375 0 0 0 0 0.500066 0 0 0 1 0"/>
<feBlend mode="normal" in2="shape" result="effect1_innerShadow_69_8810"/>
</filter>
<filter id="filter2_i_69_8810" x="449.678" y="23" width="800.146" height="136.673" filterUnits="userSpaceOnUse" color-interpolation-filters="sRGB">
<feFlood flood-opacity="0" result="BackgroundImageFix"/>
<feBlend mode="normal" in="SourceGraphic" in2="BackgroundImageFix" result="shape"/>
<feColorMatrix in="SourceAlpha" type="matrix" values="0 0 0 0 0 0 0 0 0 0 0 0 0 0 0 0 0 0 127 0" result="hardAlpha"/>
<feOffset dy="6"/>
<feGaussianBlur stdDeviation="10"/>
<feComposite in2="hardAlpha" operator="arithmetic" k2="-1" k3="1"/>
<feColorMatrix type="matrix" values="0 0 0 0 0.244375 0 0 0 0 0.6375 0 0 0 0 0.500066 0 0 0 1 0"/>
<feBlend mode="normal" in2="shape" result="effect1_innerShadow_69_8810"/>
</filter>
<filter id="filter3_i_69_8810" x="259" y="163" width="773.328" height="117.676" filterUnits="userSpaceOnUse" color-interpolation-filters="sRGB">
<feFlood flood-opacity="0" result="BackgroundImageFix"/>
<feBlend mode="normal" in="SourceGraphic" in2="BackgroundImageFix" result="shape"/>
<feColorMatrix in="SourceAlpha" type="matrix" values="0 0 0 0 0 0 0 0 0 0 0 0 0 0 0 0 0 0 127 0" result="hardAlpha"/>
<feOffset dy="6"/>
<feGaussianBlur stdDeviation="10"/>
<feComposite in2="hardAlpha" operator="arithmetic" k2="-1" k3="1"/>
<feColorMatrix type="matrix" values="0 0 0 0 0.244375 0 0 0 0 0.6375 0 0 0 0 0.500066 0 0 0 1 0"/>
<feBlend mode="normal" in2="shape" result="effect1_innerShadow_69_8810"/>
</filter>
<filter id="filter4_i_69_8810" x="17" y="444" width="1005.9" height="123.863" filterUnits="userSpaceOnUse" color-interpolation-filters="sRGB">
<feFlood flood-opacity="0" result="BackgroundImageFix"/>
<feBlend mode="normal" in="SourceGraphic" in2="BackgroundImageFix" result="shape"/>
<feColorMatrix in="SourceAlpha" type="matrix" values="0 0 0 0 0 0 0 0 0 0 0 0 0 0 0 0 0 0 127 0" result="hardAlpha"/>
<feOffset dy="6"/>
<feGaussianBlur stdDeviation="10"/>
<feComposite in2="hardAlpha" operator="arithmetic" k2="-1" k3="1"/>
<feColorMatrix type="matrix" values="0 0 0 0 0.244375 0 0 0 0 0.6375 0 0 0 0 0.500066 0 0 0 1 0"/>
<feBlend mode="normal" in2="shape" result="effect1_innerShadow_69_8810"/>
</filter>
<filter id="filter5_i_69_8810" x="3" y="284" width="1059.31" height="154.923" filterUnits="userSpaceOnUse" color-interpolation-filters="sRGB">
<feFlood flood-opacity="0" result="BackgroundImageFix"/>
<feBlend mode="normal" in="SourceGraphic" in2="BackgroundImageFix" result="shape"/>
<feColorMatrix in="SourceAlpha" type="matrix" values="0 0 0 0 0 0 0 0 0 0 0 0 0 0 0 0 0 0 127 0" result="hardAlpha"/>
<feOffset dy="6"/>
<feGaussianBlur stdDeviation="10"/>
<feComposite in2="hardAlpha" operator="arithmetic" k2="-1" k3="1"/>
<feColorMatrix type="matrix" values="0 0 0 0 0.244375 0 0 0 0 0.6375 0 0 0 0 0.500066 0 0 0 1 0"/>
<feBlend mode="normal" in2="shape" result="effect1_innerShadow_69_8810"/>
</filter>
<filter id="filter6_i_69_8810" x="451" y="23" width="797.823" height="134.673" filterUnits="userSpaceOnUse" color-interpolation-filters="sRGB">
<feFlood flood-opacity="0" result="BackgroundImageFix"/>
<feBlend mode="normal" in="SourceGraphic" in2="BackgroundImageFix" result="shape"/>
<feColorMatrix in="SourceAlpha" type="matrix" values="0 0 0 0 0 0 0 0 0 0 0 0 0 0 0 0 0 0 127 0" result="hardAlpha"/>
<feOffset dy="6"/>
<feGaussianBlur stdDeviation="10"/>
<feComposite in2="hardAlpha" operator="arithmetic" k2="-1" k3="1"/>
<feColorMatrix type="matrix" values="0 0 0 0 0.244375 0 0 0 0 0.6375 0 0 0 0 0.500066 0 0 0 1 0"/>
<feBlend mode="normal" in2="shape" result="effect1_innerShadow_69_8810"/>
</filter>
<filter id="filter7_i_69_8810" x="260" y="163" width="771.328" height="115.676" filterUnits="userSpaceOnUse" color-interpolation-filters="sRGB">
<feFlood flood-opacity="0" result="BackgroundImageFix"/>
<feBlend mode="normal" in="SourceGraphic" in2="BackgroundImageFix" result="shape"/>
<feColorMatrix in="SourceAlpha" type="matrix" values="0 0 0 0 0 0 0 0 0 0 0 0 0 0 0 0 0 0 127 0" result="hardAlpha"/>
<feOffset dy="6"/>
<feGaussianBlur stdDeviation="10"/>
<feComposite in2="hardAlpha" operator="arithmetic" k2="-1" k3="1"/>
<feColorMatrix type="matrix" values="0 0 0 0 0.244375 0 0 0 0 0.6375 0 0 0 0 0.500066 0 0 0 1 0"/>
<feBlend mode="normal" in2="shape" result="effect1_innerShadow_69_8810"/>
</filter>
<filter id="filter8_f_69_8810" x="-260" y="-277" width="1497.64" height="1497.64" filterUnits="userSpaceOnUse" color-interpolation-filters="sRGB">
<feFlood flood-opacity="0" result="BackgroundImageFix"/>
<feBlend mode="normal" in="SourceGraphic" in2="BackgroundImageFix" result="shape"/>
<feGaussianBlur stdDeviation="112" result="effect1_foregroundBlur_69_8810"/>
</filter>
<filter id="filter9_i_69_8810" x="16" y="443" width="1007.9" height="125.863" filterUnits="userSpaceOnUse" color-interpolation-filters="sRGB">
<feFlood flood-opacity="0" result="BackgroundImageFix"/>
<feBlend mode="normal" in="SourceGraphic" in2="BackgroundImageFix" result="shape"/>
<feColorMatrix in="SourceAlpha" type="matrix" values="0 0 0 0 0 0 0 0 0 0 0 0 0 0 0 0 0 0 127 0" result="hardAlpha"/>
<feOffset dy="6"/>
<feGaussianBlur stdDeviation="10"/>
<feComposite in2="hardAlpha" operator="arithmetic" k2="-1" k3="1"/>
<feColorMatrix type="matrix" values="0 0 0 0 0.244375 0 0 0 0 0.6375 0 0 0 0 0.500066 0 0 0 1 0"/>
<feBlend mode="normal" in2="shape" result="effect1_innerShadow_69_8810"/>
</filter>
<radialGradient id="paint0_radial_69_8810" cx="0" cy="0" r="1" gradientUnits="userSpaceOnUse" gradientTransform="translate(469.748 401.891) rotate(126.337) scale(683.072 205.807)">
<stop stop-color="#836BE2"/>
<stop offset="1" stop-color="white" stop-opacity="0"/>
</radialGradient>
<radialGradient id="paint1_radial_69_8810" cx="0" cy="0" r="1" gradientUnits="userSpaceOnUse" gradientTransform="translate(375.097 341.851) rotate(49.7483) scale(1242.94 224.852)">
<stop stop-color="#5AD5AA"/>
<stop offset="1" stop-color="white" stop-opacity="0"/>
</radialGradient>
</defs>
</svg>
